<?xml version="1.0" standalone="no"?>
<!DOCTYPE svg PUBLIC "-//W3C//DTD SVG 20010904//EN"
 "http://www.w3.org/TR/2001/REC-SVG-20010904/DTD/svg10.dtd">
<svg version="1.0" xmlns="http://www.w3.org/2000/svg"
 width="426.000000pt" height="426.000000pt" viewBox="0 0 426.000000 426.000000"
 preserveAspectRatio="xMidYMid meet">
<metadata>
Created by potrace 1.11, written by Peter Selinger 2001-2013
</metadata>
<g transform="translate(0.000000,426.000000) scale(0.100000,-0.100000)"
fill="#000000" stroke="none">
<path d="M1265 3810 c-63 -10 -110 -35 -155 -81 -56 -58 -72 -99 -76 -204 -7
-132 -20 -203 -71 -365 -53 -172 -144 -365 -239 -505 -73 -109 -191 -264 -253
-335 -64 -72 -85 -124 -85 -205 0 -54 5 -81 23 -115 47 -93 125 -146 222 -153
73 -6 126 10 186 54 105 78 136 215 78 344 -47 105 -64 276 -40 403 33 174
142 363 282 492 78 71 142 109 237 140 60 20 80 33 150 101 92 89 175 138 286
168 221 59 446 46 620 -37 77 -36 114 -65 200 -153 60 -61 86 -80 129 -94 114
-37 243 4 308 99 41 60 53 102 49 175 -9 141 -111 241 -258 249 -61 4 -74 1
-155 -36 -163 -75 -291 -97 -553 -97 -325 1 -570 37 -678 102 -81 48 -139 63
-207 53z"/>
<path d="M2077 3359 c-82 -19 -151 -72 -194 -152 -25 -45 -25 -178 0 -229 25
-49 79 -104 130 -129 65 -34 166 -32 239 4 133 65 187 232 119 365 -53 102
-184 165 -294 141z"/>
<path d="M2874 2964 c-99 -36 -177 -146 -177 -249 -1 -109 67 -213 166 -255
67 -29 161 -25 231 10 190 96 189 383 -2 479 -57 29 -162 36 -218 15z"/>
<path d="M1237 2846 c-75 -27 -137 -92 -165 -173 -18 -53 -9 -152 19 -208 30
-59 101 -117 165 -135 85 -24 197 3 262 63 65 60 97 166 77 254 -29 128 -134
212 -265 212 -30 0 -72 -6 -93 -13z"/>
<path d="M1985 2541 c-82 -21 -155 -88 -185 -168 -24 -65 -25 -112 -4 -184 44
-148 -30 -437 -206 -794 -117 -239 -215 -371 -298 -400 -92 -33 -123 -49 -156
-80 -47 -44 -77 -108 -83 -175 -19 -211 204 -359 393 -262 134 69 181 223 113
369 -34 73 -39 129 -18 222 40 183 178 446 336 641 64 78 227 248 325 337 65
59 102 113 113 163 37 168 -78 326 -245 336 -30 2 -68 -1 -85 -5z"/>
<path d="M3538 2485 c-115 -29 -195 -128 -202 -250 -2 -47 16 -126 36 -151 26
-34 4 -204 -37 -287 -8 -16 -15 -33 -15 -37 0 -17 -96 -179 -139 -235 -126
-164 -270 -270 -464 -340 -119 -43 -191 -142 -189 -259 2 -126 75 -224 194
-260 120 -36 257 23 314 137 21 40 27 72 34 171 14 195 76 366 197 549 108
162 277 340 396 415 174 111 209 159 212 296 2 61 -40 152 -88 192 -70 59
-163 81 -249 59z"/>
<path d="M2710 2121 c-126 -41 -200 -144 -195 -272 3 -76 27 -131 81 -183 50
-49 99 -69 176 -74 55 -3 76 0 120 20 103 48 161 137 161 248 0 38 -7 81 -17
103 -22 51 -81 114 -130 139 -44 23 -153 33 -196 19z"/>
<path d="M1174 1916 c-88 -41 -150 -129 -157 -224 -19 -251 284 -390 462 -211
100 100 101 274 3 376 -77 79 -209 105 -308 59z"/>
<path d="M2163 1609 c-250 -45 -306 -376 -85 -505 41 -24 58 -28 127 -28 65
-1 88 4 125 23 182 96 202 343 37 462 -61 44 -132 61 -204 48z"/>
</g>
</svg>
