<?xml version="1.0" standalone="no"?><!-- Generator: Gravit.io --><svg xmlns="http://www.w3.org/2000/svg" xmlns:xlink="http://www.w3.org/1999/xlink" style="isolation:isolate" id="svg" width="31" height="31"><path d="M 26.943703368754164 5.611793389922438 L 22.00180872710824 11.898139786888153 L 30 12.177171753657184 L 22.699073027356956 15.451056528806287 L 29.652724395206796 19.408975979772457 L 21.66402893963368 18.919992775871478 L 25.977843092923315 25.650623081090846 L 19.131358806240073 21.511197399313744 L 19.819127289170254 29.473090121004105 L 15.684377119602072 22.63138883872136 L 12.586027583088308 30 L 12.10988017182902 22.021852988983213 L 5.937598914763745 27.109445548130672 L 9.228577888311055 19.824814881704967 L 1.395885145828579 21.465143579555843 L 7.699751300022587 16.54144843778231 L 0 14.360664619830377 L 7.873389102419134 12.926223586779846 L 2.0728012661089052 7.421437601589414 L 9.711508026226507 9.805400036120652 L 7.136784987564917 2.2390283547047733 L 12.79086592810304 7.894166516164081 L 14.032104906172249 0 L 16.407415781143953 7.631388838721358 L 21.179742256387023 1.2163626512552617 L 19.73095184264072 9.075311540545451 L 26.943703368754164 5.611793389922438 Z" style="stroke:none;fill:#EC7A59;stroke-miterlimit:10;"/><path d="M 26.943703368754164 5.611793389922438 L 22.00180872710824 11.898139786888153 L 30 12.177171753657184 L 22.699073027356956 15.451056528806287 L 29.652724395206796 19.408975979772457 L 21.66402893963368 18.919992775871478 L 25.977843092923315 25.650623081090846 L 19.131358806240073 21.511197399313744 L 19.819127289170254 29.473090121004105 L 15.684377119602072 22.63138883872136 L 12.586027583088308 30 L 12.10988017182902 22.021852988983213 L 5.937598914763745 27.109445548130672 L 9.228577888311055 19.824814881704967 L 1.395885145828579 21.465143579555843 L 7.699751300022587 16.54144843778231 L 0 14.360664619830377 L 7.873389102419134 12.926223586779846 L 2.0728012661089052 7.421437601589414 L 9.711508026226507 9.805400036120652 L 7.136784987564917 2.2390283547047733 L 12.79086592810304 7.894166516164081 L 14.032104906172249 0 L 16.407415781143953 7.631388838721358 L 21.179742256387023 1.2163626512552617 L 19.73095184264072 9.075311540545451 L 26.943703368754164 5.611793389922438 Z" style="fill:none;stroke:#D04748;stroke-width:1.9999999994723638;stroke-linecap:round;stroke-linejoin:bevel;"/></svg>
