<?xml version="1.0" encoding="UTF-8"?>
<!DOCTYPE svg PUBLIC "-//W3C//DTD SVG 1.1//EN"
  "http://www.w3.org/Graphics/SVG/1.1/DTD/svg11.dtd">
<!-- Created with Inkpad (http://www.taptrix.com/) --><svg xmlns="http://www.w3.org/2000/svg" xmlns:xlink="http://www.w3.org/1999/xlink" viewBox="0,0,1284,1284" xmlns:inkpad="http://taptrix.com/inkpad/svg_extensions" width="1284pt" height="1284pt" version="1.1">
<g id="Layer_4" inkpad:layerName="Layer 1">
<path stroke-linejoin="round" stroke-width="64.0183" stroke="#ffffff" stroke-opacity="0.624463" d="M222.319+458.207C199.589+458.207+168.116+448.043+144.237+450.431C130.996+451.755+114.951+459.86+103.381+466.171C67.0631+485.981+43.6516+509.228+54.4874+552.572C56.9854+562.564+53.6576+583.01+62.1898+589.409C73.3972+597.815+86.6918+593.142+99.6973+594.768C117.05+596.937+200.056+614.765+208.972+623.682M124.456+451.026C113.162+436.908+97.021+422.628+78.9519+418.458C71.7703+416.8+63.2014+415.489+58.2543+422.415C53.8604+428.566+51.0092+461.13+56.2759+466.397C57.9344+468.055+62.051+468.768+64.1897+470.506C65.7501+471.774+71.4062+477.354+73.1688+477.354M130.544+451.635C130.544+435.758+136.175+419.289+136.175+403.695C136.175+398.01+137.61+392.233+137.849+386.498C137.871+385.963+139.192+377.341+139.523+377.671C140.513+378.661+145.216+396.334+146.676+399.739C152.46+413.236+162.94+424.171+170.569+436.568C171.597+438.239+181.62+452.759+182.744+451.635M182.744+451.635C187.579+450.023+204.45+433.772+207.619+429.812C211.007+425.577+216.617+421.516+218.967+416.816C224.406+405.939+186.695+385.075+180.712+377.097C173.055+366.887+173.94+352.678+173.94+340.672C173.94+338.635+173.625+318.107+173.94+317.792C180.205+311.527+196.2+333.821+199.199+337.194C214.602+354.523+229.785+373.96+243.128+393.021C247.699+399.551+277.397+443.616+277.397+451.635M252.016+418.178C252.016+405.022+243.812+393.326+241.973+380.448C236.896+344.913+239.554+298.364+257.173+267.53C269.833+245.377+285.125+240.308+310.375+243.915C313.366+244.343+321.474+244.429+323.404+246.358C330.271+253.225+331.952+272.751+335.618+281.917C342.2+298.372+355.526+313.045+363.305+328.604C366.964+335.922+368.6+344.557+370.362+352.49C370.439+352.837+371.241+355.205+371.448+355.205C373.802+355.205+373.891+341.79+373.891+340.547C373.891+326.506+372.63+313.088+370.905+299.289C366.706+265.693+372.079+196.928+409.449+184.471C457.968+168.297+490.811+204.324+503.909+247.987C510.256+269.142+509.777+300.415+512.052+323.175C515.472+357.37+489.543+405.783+489.543+432.097M489.543+432.097C489.543+425.537+503.93+398.774+507.745+393.918C537.447+356.116+553.144+356.431+597.467+351.999C600.271+351.719+634.563+350.485+635.341+351.264C638.028+353.95+635.345+373.678+634.606+377.004C629.506+399.952+635.043+424.23+627.62+446.502C626.403+450.151+612.713+476.823+617.324+481.434C617.67+481.781+618.304+481.434+618.794+481.434C626.051+481.434+638.952+466.395+645.638+462.681C671.424+448.355+693.211+437.115+722.122+430.69C726.025+429.822+747.871+423.713+751.907+427.748C752.996+428.837+750.588+430.732+750.068+431.425C742.192+441.926+735.141+454.771+730.212+467.093C721.733+488.29+711.826+526.707+711.826+549.461M715.642+547.499C726.162+526.458+753.891+508.102+776.992+505.536C784.389+504.714+793.671+504.062+801.041+505.536C804.633+506.254+810.612+510.934+810.612+510.934C810.612+510.934+819.498+510.298+823.618+511.671C833.548+514.981+844.972+521.249+849.876+531.057C870.987+573.278+841.847+580.137+813.311+598.297C805.933+602.992+783.562+615.637+785.09+624.8M844.128+781.652C844.128+767.984+820.738+733.863+814.139+720.665C794.276+680.938+839.037+650.417+862.777+670.766C870.186+677.116+894.572+738.655+899.823+750.906C902.284+756.648+905.569+780.896+907.888+780.896M941.285+790.539C941.285+779.548+941.7+734.82+940.145+723.941C938.515+712.528+931.033+703.616+934.349+691.179C939.993+670.013+961.416+650.302+979.459+641.281C987.646+637.187+999.685+670.566+1000.88+675.05C1008.69+704.343+1007.69+737.09+1011.97+767.035C1012.8+772.869+1012.33+788.062+1016.51+792.237C1016.73+792.465+1016.76+789.238+1016.76+788.708C1016.76+784.012+1016.23+779.518+1016+774.848C1015.41+763.039+1015.09+751.112+1016+739.314C1017.57+718.882+1017.62+712.742+1018.02+712.348C1025.02+705.35+1031.28+695.554+1038.68+688.155C1045.02+681.817+1053.26+677.356+1059.6+671.018C1063.63+666.993+1067.94+660.297+1073.21+657.662C1074.12+657.207+1075.22+658.917+1075.73+659.426C1082.99+666.686+1087.12+684.998+1091.1+694.96C1097.77+711.627+1105.78+729.87+1113.78+745.866C1114.74+747.786+1122.34+761.757+1121.09+763.003C1120.74+763.349+1120.84+762.558+1120.84+762.499C1120.84+758.186+1120.68+753.618+1119.83+749.394C1118.25+741.503+1116.36+727.422+1119.58+719.909C1127.97+700.33+1167.08+648.883+1195.69+658.418C1200.81+660.124+1212.57+689.398+1213.33+695.464C1216.36+719.682+1224.45+747.956+1219.38+773.336C1217.55+782.467+1208.54+794.655+1208.54+803.325M816.273+790.381C869.315+790.381+943.885+782.764+996.361+777.517C1017.63+775.39+1035.2+763.704+1055.95+760.74C1086.96+756.31+1120.9+764.125+1149.67+774.914C1190.53+790.238+1190.95+804.55+1213.02+831.03C1220.86+840.448+1232.83+848.816+1237.31+862.269C1242.57+878.043+1222.08+899.775+1212.44+909.418C1206.99+914.861+1192.95+915.874+1185.82+917.517C1151.93+925.34+1106.18+924.066+1079.96+897.848C1076.7+894.589+1056.06+901.03+1051.61+901.03C1033.52+901.03+1011.21+897.772+993.469+901.319C983.107+903.391+973.723+908.551+962.808+908.551C932.748+908.551+904.489+901.19+876.609+890.038C867.435+886.368+819.081+868.54+811.999+868.54M769.006+888.028C769.006+895.596+789.835+935.973+792.977+951.685C795.692+965.26+800.514+978.927+801.767+992.702C802.368+999.312+807.625+1009.75+804.963+1016.41C799.763+1029.41+773.918+1040.59+762.614+1046.24C757.892+1048.6+748.556+1044.93+744.502+1043.57C720.777+1035.67+707.857+993.248+701.621+972.46C696.486+955.345+697.422+938.248+675.519+942.629C648.479+948.038+676.366+1004.59+667.795+1021.73C662.628+1032.07+630.19+1017.16+624.38+1011.35C608.338+995.305+601.611+959.546+596.414+954.349C596.138+954.073+595.516+954.531+595.349+954.615C586.624+958.978+578.55+972.396+572.709+980.184C558.374+999.298+550.575+1024.85+525.566+1033.19C470.373+1051.59+431.806+991.418+418.761+949.022C413.996+933.535+410.163+912.994+412.369+896.818C412.734+894.137+417.225+880.571+420.892+880.571M421.778+873.639C416.082+890.728+398.404+899.288+389.618+913.932C382.199+926.297+371.127+934.537+358.197+942.765C337.639+955.848+312.538+978.243+293.138+952.376C278.565+932.945+280.79+854.585+282.418+828.541C282.841+821.768+287.332+789.358+295.356+789.358M808.497+1012.29C827.318+1037.39+834.348+1038.28+802.17+1050.65C795.207+1053.33+789.569+1058.55+782.002+1056.39C774.024+1054.11+770.86+1044.06+765.59+1038.79C765.195+1038.39+764.904+1037.35+764.404+1037.6C757.155+1041.23+760.709+1060.05+756.693+1066.08C751.088+1074.48+719.979+1062.67+712.797+1058.36C700.507+1050.99+701.527+1021.99+701.527+1010.12C701.527+1008.59+702.787+993.906+704.492+993.906M657.433+1006.76C657.433+1019.56+681.322+1052.4+674.636+1064.1C669.292+1073.45+658.86+1073.59+649.129+1073.59C624.247+1073.59+596.645+1051.39+589.02+1028.51C586.541+1021.07+618.283+1000.13+618.283+994.499M534.633+1027.39C534.633+1051.09+537.719+1074.11+509.733+1074.11C501.158+1074.11+490.994+1073.33+483.434+1068.8C473.176+1062.64+471.347+1044.12+473.362+1032.71C474.461+1026.48+479.25+1021.59+482.874+1016.76C483.076+1016.49+483.434+1015.58+483.434+1015.92C483.434+1025.87+453.183+1060.38+441.747+1065.72C437.115+1067.88+432.504+1069.95+428.038+1072.44C427.712+1072.62+422.792+1076.39+422.443+1075.51C415.081+1057.11+418.643+1035.48+430.277+1020.68C436.263+1013.06+441.913+1005.33+448.182+998.015C448.681+997.433+450.64+996.776+450.141+995.777C444.546+984.588+399.358+1008.33+392.787+1008.93C390.331+1009.15+378.862+1012.69+377.399+1009.77C373.119+1001.21+418.392+968.638+428.318+968.638M387.191+912.404C387.191+927.896+393.838+942.707+398.942+957.168C401.795+965.252+405.926+974.695+406.775+983.187C407.47+990.129+409.97+993.818+407.055+1000.81C404.738+1006.37+400.778+1018.56+396.704+1022.64C392.917+1026.42+378.385+1010.19+376.84+1008.37C367.671+997.53+333.847+952.425+319.206+956.608C300.384+961.986+283.389+1046.41+239.75+1002.77C221.183+984.203+235.816+919.184+255.977+907.088C262.145+903.387+272.552+905.13+279.478+905.13M273.404+901.931C268.593+901.931+227.698+906.504+226.338+907.864C224.552+909.65+219.323+913.651+215.659+911.819C186.486+897.232+205.62+821.691+233.062+812.544C263.818+802.292+277.078+827.178+285.27+827.178M138.042+573.685C138.042+568.582+134.017+530.931+132.732+524.507C131.915+520.42+127.006+507.329+128.807+503.727C131.904+497.532+148.193+507.414+150.972+509.73C166.614+522.764+175.273+523.179+180.064+547.133C180.561+549.62+183.272+555.264+181.911+557.985C178.802+564.204+138.966+565.401+138.966+583.844M106.18+567.452C109.077+557.971+113.698+543.172+107.565+533.973C102.03+525.671+81.9074+514.406+75.0103+528.201C66.2538+545.714+77.4978+549.57+91.1724+557.985C94.3315+559.929+104.771+572.065+106.18+567.452ZM207.819+617.815C207.819+573.357+218.836+530.256+218.836+485.609C218.836+480.242+217.116+443.575+220.41+440.281C228.803+431.889+264.269+424.368+275.811+416.673C287.307+409.009+301.459+404.538+314.843+401.564C327.131+398.833+336.88+392.159+349.783+390.547C400.358+384.225+445.605+412.569+489.543+432.097C521.675+446.378+556.126+458.753+585.55+478.369C610.192+494.797+637.664+505.88+661.726+523.067C669.631+528.714+690.816+545.102+697.925+545.102M701.662+544.643C720.04+559.346+742.657+564.984+756.483+583.419C763.114+592.26+766.808+603.4+771.86+613.503C813.302+696.39+806.568+748.823+813.309+836.463C815.05+859.088+816.652+881.371+816.652+903.651M811.979+899.267C796.775+899.267+783.095+893.347+766.663+895.538C740.843+898.981+717.375+913.02+693.238+921.065C658.373+932.686+632.475+967.452+595.148+972.118C556.465+976.953+518.757+952.181+493.902+924.22C487.062+916.526+477.198+904.539+467.802+899.841C457.854+894.867+448.451+888.443+437.686+885.213C427.162+882.056+416.175+882.746+405.85+878.616C390.427+872.447+379.13+857.083+364.262+849.648C355.734+845.384+339.839+839.279+333.286+832.726M334.875+830.636C319.4+830.636+306.394+804.746+298.471+794.56C291.569+785.687+265.316+748.077+261.74+739.136C252.1+715.034+252.582+691.631+239.439+665.345C233.651+653.769+208.611+625.318+208.611+614.184M627.062+506.526C627.88+502.551+627.632+498.29+629.177+494.538C631.039+490.015+660.326+504.035+663.026+505.115C681.794+512.623+700.158+523.913+714.503+538.259C721.182+544.937+725.005+554.572+731.428+561.529C748.242+579.745+773.299+592.049+785.726+614.417C793.177+627.829+793.984+649.564+797.714+664.485C802.26+682.67+796.778+711.976+801.897+729.892C808.644+753.506+811.999+844.199+811.999+868.54C811.999+930.794+818.679+874.088+751.531+896.471C707.031+911.304+680.387+912.541+626.75+954.529C620.857+959.142+601.838+957.061+596.414+954.349C586.667+949.475+541.211+951.184+530.089+950.257C504.488+948.124+500.754+912.637+476.154+904.95C444.401+895.027+433.996+895.504+405.85+878.616C387.286+867.478+350.906+847.29+334.875+830.636C260.791+753.674+251.532+704.465+244.544+681.065C230.318+633.425+239.439+665.345+208.611+614.184C202.726+604.418+242.133+545.656+250.498+538.964C303.616+496.469+376.6+525.119+438.075+527.681C468.86+528.964+499.61+529.091+530.453+529.091C552.397+529.091+573.036+522.162+594.624+519.219C597.738+518.794+623.041+520.553+624.241+518.514C626.322+514.975+626.234+510.546+627.062+506.526Z" fill="#ffffff" stroke-linecap="round" opacity="1"/>
<path stroke-linejoin="round" stroke-width="64.0183" stroke="#ffffff" stroke-opacity="0.624463" d="M222.319+458.207C199.589+458.207+168.116+448.043+144.237+450.431C130.996+451.755+114.951+459.86+103.381+466.171C67.0631+485.981+43.6516+509.228+54.4874+552.572C56.9854+562.564+53.6576+583.01+62.1898+589.409C73.3972+597.815+86.6918+593.142+99.6973+594.768C117.05+596.937+200.056+614.765+208.972+623.682M124.456+451.026C113.162+436.908+97.021+422.628+78.9519+418.458C71.7703+416.8+63.2014+415.489+58.2543+422.415C53.8604+428.566+51.0092+461.13+56.2759+466.397C57.9344+468.055+62.051+468.768+64.1897+470.506C65.7501+471.774+71.4062+477.354+73.1688+477.354M130.544+451.635C130.544+435.758+136.175+419.289+136.175+403.695C136.175+398.01+137.61+392.233+137.849+386.498C137.871+385.963+139.192+377.341+139.523+377.671C140.513+378.661+145.216+396.334+146.676+399.739C152.46+413.236+162.94+424.171+170.569+436.568C171.597+438.239+181.62+452.759+182.744+451.635M182.744+451.635C187.579+450.023+204.45+433.772+207.619+429.812C211.007+425.577+216.617+421.516+218.967+416.816C224.406+405.939+186.695+385.075+180.712+377.097C173.055+366.887+173.94+352.678+173.94+340.672C173.94+338.635+173.625+318.107+173.94+317.792C180.205+311.527+196.2+333.821+199.199+337.194C214.602+354.523+229.785+373.96+243.128+393.021C247.699+399.551+277.397+443.616+277.397+451.635M252.016+418.178C252.016+405.022+243.812+393.326+241.973+380.448C236.896+344.913+239.554+298.364+257.173+267.53C269.833+245.377+285.125+240.308+310.375+243.915C313.366+244.343+321.474+244.429+323.404+246.358C330.271+253.225+331.952+272.751+335.618+281.917C342.2+298.372+355.526+313.045+363.305+328.604C366.964+335.922+368.6+344.557+370.362+352.49C370.439+352.837+371.241+355.205+371.448+355.205C373.802+355.205+373.891+341.79+373.891+340.547C373.891+326.506+372.63+313.088+370.905+299.289C366.706+265.693+372.079+196.928+409.449+184.471C457.968+168.297+490.811+204.324+503.909+247.987C510.256+269.142+509.777+300.415+512.052+323.175C515.472+357.37+489.543+405.783+489.543+432.097M489.543+432.097C489.543+425.537+503.93+398.774+507.745+393.918C537.447+356.116+553.144+356.431+597.467+351.999C600.271+351.719+634.563+350.485+635.341+351.264C638.028+353.95+635.345+373.678+634.606+377.004C629.506+399.952+635.043+424.23+627.62+446.502C626.403+450.151+612.713+476.823+617.324+481.434C617.67+481.781+618.304+481.434+618.794+481.434C626.051+481.434+638.952+466.395+645.638+462.681C671.424+448.355+693.211+437.115+722.122+430.69C726.025+429.822+747.871+423.713+751.907+427.748C752.996+428.837+750.588+430.732+750.068+431.425C742.192+441.926+735.141+454.771+730.212+467.093C721.733+488.29+711.826+526.707+711.826+549.461M715.642+547.499C726.162+526.458+753.891+508.102+776.992+505.536C784.389+504.714+793.671+504.062+801.041+505.536C804.633+506.254+810.612+510.934+810.612+510.934C810.612+510.934+819.498+510.298+823.618+511.671C833.548+514.981+844.972+521.249+849.876+531.057C870.987+573.278+841.847+580.137+813.311+598.297C805.933+602.992+783.562+615.637+785.09+624.8M844.128+781.652C844.128+767.984+820.738+733.863+814.139+720.665C794.276+680.938+839.037+650.417+862.777+670.766C870.186+677.116+894.572+738.655+899.823+750.906C902.284+756.648+905.569+780.896+907.888+780.896M941.285+790.539C941.285+779.548+941.7+734.82+940.145+723.941C938.515+712.528+931.033+703.616+934.349+691.179C939.993+670.013+961.416+650.302+979.459+641.281C987.646+637.187+999.685+670.566+1000.88+675.05C1008.69+704.343+1007.69+737.09+1011.97+767.035C1012.8+772.869+1012.33+788.062+1016.51+792.237C1016.73+792.465+1016.76+789.238+1016.76+788.708C1016.76+784.012+1016.23+779.518+1016+774.848C1015.41+763.039+1015.09+751.112+1016+739.314C1017.57+718.882+1017.62+712.742+1018.02+712.348C1025.02+705.35+1031.28+695.554+1038.68+688.155C1045.02+681.817+1053.26+677.356+1059.6+671.018C1063.63+666.993+1067.94+660.297+1073.21+657.662C1074.12+657.207+1075.22+658.917+1075.73+659.426C1082.99+666.686+1087.12+684.998+1091.1+694.96C1097.77+711.627+1105.78+729.87+1113.78+745.866C1114.74+747.786+1122.34+761.757+1121.09+763.003C1120.74+763.349+1120.84+762.558+1120.84+762.499C1120.84+758.186+1120.68+753.618+1119.83+749.394C1118.25+741.503+1116.36+727.422+1119.58+719.909C1127.97+700.33+1167.08+648.883+1195.69+658.418C1200.81+660.124+1212.57+689.398+1213.33+695.464C1216.36+719.682+1224.45+747.956+1219.38+773.336C1217.55+782.467+1208.54+794.655+1208.54+803.325M816.273+790.381C869.315+790.381+943.885+782.764+996.361+777.517C1017.63+775.39+1035.2+763.704+1055.95+760.74C1086.96+756.31+1120.9+764.125+1149.67+774.914C1190.53+790.238+1190.95+804.55+1213.02+831.03C1220.86+840.448+1232.83+848.816+1237.31+862.269C1242.57+878.043+1222.08+899.775+1212.44+909.418C1206.99+914.861+1192.95+915.874+1185.82+917.517C1151.93+925.34+1106.18+924.066+1079.96+897.848C1076.7+894.589+1056.06+901.03+1051.61+901.03C1033.52+901.03+1011.21+897.772+993.469+901.319C983.107+903.391+973.723+908.551+962.808+908.551C932.748+908.551+904.489+901.19+876.609+890.038C867.435+886.368+819.081+868.54+811.999+868.54M769.006+888.028C769.006+895.596+789.835+935.973+792.977+951.685C795.692+965.26+800.514+978.927+801.767+992.702C802.368+999.312+807.625+1009.75+804.963+1016.41C799.763+1029.41+773.918+1040.59+762.614+1046.24C757.892+1048.6+748.556+1044.93+744.502+1043.57C720.777+1035.67+707.857+993.248+701.621+972.46C696.486+955.345+697.422+938.248+675.519+942.629C648.479+948.038+676.366+1004.59+667.795+1021.73C662.628+1032.07+630.19+1017.16+624.38+1011.35C608.338+995.305+601.611+959.546+596.414+954.349C596.138+954.073+595.516+954.531+595.349+954.615C586.624+958.978+578.55+972.396+572.709+980.184C558.374+999.298+550.575+1024.85+525.566+1033.19C470.373+1051.59+431.806+991.418+418.761+949.022C413.996+933.535+410.163+912.994+412.369+896.818C412.734+894.137+417.225+880.571+420.892+880.571M421.778+873.639C416.082+890.728+398.404+899.288+389.618+913.932C382.199+926.297+371.127+934.537+358.197+942.765C337.639+955.848+312.538+978.243+293.138+952.376C278.565+932.945+280.79+854.585+282.418+828.541C282.841+821.768+287.332+789.358+295.356+789.358M808.497+1012.29C827.318+1037.39+834.348+1038.28+802.17+1050.65C795.207+1053.33+789.569+1058.55+782.002+1056.39C774.024+1054.11+770.86+1044.06+765.59+1038.79C765.195+1038.39+764.904+1037.35+764.404+1037.6C757.155+1041.23+760.709+1060.05+756.693+1066.08C751.088+1074.48+719.979+1062.67+712.797+1058.36C700.507+1050.99+701.527+1021.99+701.527+1010.12C701.527+1008.59+702.787+993.906+704.492+993.906M657.433+1006.76C657.433+1019.56+681.322+1052.4+674.636+1064.1C669.292+1073.45+658.86+1073.59+649.129+1073.59C624.247+1073.59+596.645+1051.39+589.02+1028.51C586.541+1021.07+618.283+1000.13+618.283+994.499M534.633+1027.39C534.633+1051.09+537.719+1074.11+509.733+1074.11C501.158+1074.11+490.994+1073.33+483.434+1068.8C473.176+1062.64+471.347+1044.12+473.362+1032.71C474.461+1026.48+479.25+1021.59+482.874+1016.76C483.076+1016.49+483.434+1015.58+483.434+1015.92C483.434+1025.87+453.183+1060.38+441.747+1065.72C437.115+1067.88+432.504+1069.95+428.038+1072.44C427.712+1072.62+422.792+1076.39+422.443+1075.51C415.081+1057.11+418.643+1035.48+430.277+1020.68C436.263+1013.06+441.913+1005.33+448.182+998.015C448.681+997.433+450.64+996.776+450.141+995.777C444.546+984.588+399.358+1008.33+392.787+1008.93C390.331+1009.15+378.862+1012.69+377.399+1009.77C373.119+1001.21+418.392+968.638+428.318+968.638M387.191+912.404C387.191+927.896+393.838+942.707+398.942+957.168C401.795+965.252+405.926+974.695+406.775+983.187C407.47+990.129+409.97+993.818+407.055+1000.81C404.738+1006.37+400.778+1018.56+396.704+1022.64C392.917+1026.42+378.385+1010.19+376.84+1008.37C367.671+997.53+333.847+952.425+319.206+956.608C300.384+961.986+283.389+1046.41+239.75+1002.77C221.183+984.203+235.816+919.184+255.977+907.088C262.145+903.387+272.552+905.13+279.478+905.13M273.404+901.931C268.593+901.931+227.698+906.504+226.338+907.864C224.552+909.65+219.323+913.651+215.659+911.819C186.486+897.232+205.62+821.691+233.062+812.544C263.818+802.292+277.078+827.178+285.27+827.178M106.18+567.452C109.077+557.971+113.698+543.172+107.565+533.973C102.03+525.671+81.9074+514.406+75.0103+528.201C66.2538+545.714+77.4978+549.57+91.1724+557.985C94.3315+559.929+104.771+572.065+106.18+567.452ZM207.819+617.815C207.819+573.357+218.836+530.256+218.836+485.609C218.836+480.242+217.116+443.575+220.41+440.281C228.803+431.889+264.269+424.368+275.811+416.673C287.307+409.009+301.459+404.538+314.843+401.564C327.131+398.833+336.88+392.159+349.783+390.547C400.358+384.225+445.605+412.569+489.543+432.097C521.675+446.378+556.126+458.753+585.55+478.369C610.192+494.797+637.664+505.88+661.726+523.067C669.631+528.714+690.816+545.102+697.925+545.102M701.662+544.643C720.04+559.346+742.657+564.984+756.483+583.419C763.114+592.26+766.808+603.4+771.86+613.503C813.302+696.39+806.568+748.823+813.309+836.463C815.05+859.088+816.652+881.371+816.652+903.651M811.979+899.267C796.775+899.267+783.095+893.347+766.663+895.538C740.843+898.981+717.375+913.02+693.238+921.065C658.373+932.686+632.475+967.452+595.148+972.118C556.465+976.953+518.757+952.181+493.902+924.22C487.062+916.526+477.198+904.539+467.802+899.841C457.854+894.867+448.451+888.443+437.686+885.213C427.162+882.056+416.175+882.746+405.85+878.616C390.427+872.447+379.13+857.083+364.262+849.648C355.734+845.384+339.839+839.279+333.286+832.726M334.875+830.636C319.4+830.636+306.394+804.746+298.471+794.56C291.569+785.687+265.316+748.077+261.74+739.136C252.1+715.034+252.582+691.631+239.439+665.345C233.651+653.769+208.611+625.318+208.611+614.184M627.062+506.526C627.88+502.551+627.632+498.29+629.177+494.538C631.039+490.015+660.326+504.035+663.026+505.115C681.794+512.623+700.158+523.913+714.503+538.259C721.182+544.937+725.005+554.572+731.428+561.529C748.242+579.745+773.299+592.049+785.726+614.417C793.177+627.829+793.984+649.564+797.714+664.485C802.26+682.67+796.778+711.976+801.897+729.892C808.644+753.506+811.999+844.199+811.999+868.54C811.999+930.794+818.679+874.088+751.531+896.471C707.031+911.304+680.387+912.541+626.75+954.529C620.857+959.142+601.838+957.061+596.414+954.349C586.667+949.475+541.211+951.184+530.089+950.257C504.488+948.124+500.754+912.637+476.154+904.95C444.401+895.027+433.996+895.504+405.85+878.616C387.286+867.478+350.906+847.29+334.875+830.636C260.791+753.674+251.532+704.465+244.544+681.065C230.318+633.425+239.439+665.345+208.611+614.184C202.726+604.418+242.133+545.656+250.498+538.964C303.616+496.469+376.6+525.119+438.075+527.681C468.86+528.964+499.61+529.091+530.453+529.091C552.397+529.091+573.036+522.162+594.624+519.219C597.738+518.794+623.041+520.553+624.241+518.514C626.322+514.975+626.234+510.546+627.062+506.526Z" fill="#ffffff" stroke-linecap="round" opacity="1"/>
</g>
<g id="Layer_5" inkpad:layerName="Layer 1">
<g opacity="1">
<path stroke-linejoin="round" stroke-width="15.2731" stroke="#000000" stroke-opacity="0.671674" d="M212.889+457.129C190.16+457.129+168.116+448.043+144.237+450.431C130.996+451.755+114.951+459.86+103.381+466.171C67.0631+485.981+43.6516+509.228+54.4874+552.572C56.9854+562.564+53.6576+583.01+62.1898+589.409C73.3972+597.815+86.6918+593.142+99.6973+594.768C117.05+596.937+188.903+611.302+197.819+620.219" fill="none" stroke-linecap="round" opacity="1"/>
<path stroke-linejoin="round" stroke-width="15.2731" stroke="#000000" stroke-opacity="0.671674" d="M124.456+451.026C113.162+436.908+97.021+422.628+78.9519+418.458C71.7703+416.8+63.2014+415.489+58.2543+422.415C53.8604+428.566+51.0092+461.13+56.2759+466.397C57.9344+468.055+62.051+468.768+64.1897+470.506C65.7501+471.774+71.4062+477.354+73.1688+477.354" fill="none" stroke-linecap="round" opacity="1"/>
<path stroke-linejoin="round" stroke-width="15.2731" stroke="#000000" stroke-opacity="0.671674" d="M130.544+451.635C130.544+435.758+136.175+419.289+136.175+403.695C136.175+398.01+137.61+392.233+137.849+386.498C137.871+385.963+139.192+377.341+139.523+377.671C140.513+378.661+145.216+396.334+146.676+399.739C152.46+413.236+162.94+424.171+170.569+436.568C171.597+438.239+181.62+452.759+182.744+451.635" fill="none" stroke-linecap="round" opacity="1"/>
<path stroke-linejoin="round" stroke-width="15.2731" stroke="#000000" stroke-opacity="0.671674" d="M194.074+440.794C198.908+439.183+204.45+433.772+207.619+429.812C211.007+425.577+216.617+421.516+218.967+416.816C224.406+405.939+186.695+385.075+180.712+377.097C173.055+366.887+173.94+352.678+173.94+340.672C173.94+338.635+173.625+318.107+173.94+317.792C180.205+311.527+196.2+333.821+199.199+337.194C214.602+354.523+229.785+373.96+243.128+393.021C247.699+399.551+259.053+412.641+259.053+420.66" fill="none" stroke-linecap="round" opacity="1"/>
<path stroke-linejoin="round" stroke-width="15.2731" stroke="#000000" stroke-opacity="0.671674" d="M252.016+418.178C252.016+405.022+243.812+393.326+241.973+380.448C236.896+344.913+239.554+298.364+257.173+267.53C269.833+245.377+285.125+240.308+310.375+243.915C313.366+244.343+321.474+244.429+323.404+246.358C330.271+253.225+331.952+272.751+335.618+281.917C342.2+298.372+355.526+313.045+363.305+328.604C366.964+335.922+368.6+344.557+370.362+352.49C370.439+352.837+371.241+355.205+371.448+355.205C373.802+355.205+373.891+341.79+373.891+340.547C373.891+326.506+372.63+313.088+370.905+299.289C366.706+265.693+372.079+196.928+409.449+184.471C457.968+168.297+490.811+204.324+503.909+247.987C510.256+269.142+509.777+300.415+512.052+323.175C515.472+357.37+493.052+393.221+493.052+419.535" fill="none" stroke-linecap="round" opacity="1"/>
<path stroke-linejoin="round" stroke-width="15.2731" stroke="#000000" stroke-opacity="0.671674" d="M495.243+413.04C495.243+406.48+503.93+398.774+507.745+393.918C537.447+356.116+553.144+356.431+597.467+351.999C600.271+351.719+634.563+350.485+635.341+351.264C638.028+353.95+635.345+373.678+634.606+377.004C629.506+399.952+635.043+424.23+627.62+446.502C626.403+450.151+612.713+476.823+617.324+481.434C617.67+481.781+618.304+481.434+618.794+481.434C626.051+481.434+638.952+466.395+645.638+462.681C671.424+448.355+693.211+437.115+722.122+430.69C726.025+429.822+747.871+423.713+751.907+427.748C752.996+428.837+750.588+430.732+750.068+431.425C742.192+441.926+735.141+454.771+730.212+467.093C721.733+488.29+711.826+526.707+711.826+549.461" fill="none" stroke-linecap="round" opacity="1"/>
<path stroke-linejoin="round" stroke-width="15.2731" stroke="#000000" stroke-opacity="0.671674" d="M715.642+547.499C726.162+526.458+753.891+508.102+776.992+505.536C784.389+504.714+793.671+504.062+801.041+505.536C804.633+506.254+810.612+510.934+810.612+510.934C810.612+510.934+819.498+510.298+823.618+511.671C833.548+514.981+844.972+521.249+849.876+531.057C870.987+573.278+841.847+580.137+813.311+598.297C805.933+602.992+783.562+615.637+785.09+624.8" fill="none" stroke-linecap="round" opacity="1"/>
<path stroke-linejoin="round" stroke-width="15.2731" stroke="#000000" stroke-opacity="0.671674" d="M844.128+781.652C844.128+767.984+820.738+733.863+814.139+720.665C794.276+680.938+839.037+650.417+862.777+670.766C870.186+677.116+894.572+738.655+899.823+750.906C902.284+756.648+905.569+780.896+907.888+780.896" fill="none" stroke-linecap="round" opacity="1"/>
<path stroke-linejoin="round" stroke-width="15.2731" stroke="#000000" stroke-opacity="0.671674" d="M940.649+757.459C940.649+746.467+941.7+734.82+940.145+723.941C938.515+712.528+931.033+703.616+934.349+691.179C939.993+670.013+961.416+650.302+979.459+641.281C987.646+637.187+999.685+670.566+1000.88+675.05C1008.69+704.343+1007.69+737.09+1011.97+767.035C1012.8+772.869+1012.33+788.062+1016.51+792.237C1016.73+792.465+1016.76+789.238+1016.76+788.708C1016.76+784.012+1016.23+779.518+1016+774.848C1015.41+763.039+1015.09+751.112+1016+739.314C1017.57+718.882+1017.62+712.742+1018.02+712.348C1025.02+705.35+1031.28+695.554+1038.68+688.155C1045.02+681.817+1053.26+677.356+1059.6+671.018C1063.63+666.993+1067.94+660.297+1073.21+657.662C1074.12+657.207+1075.22+658.917+1075.73+659.426C1082.99+666.686+1087.12+684.998+1091.1+694.96C1097.77+711.627+1105.78+729.87+1113.78+745.866C1114.74+747.786+1122.34+761.757+1121.09+763.003C1120.74+763.349+1120.84+762.558+1120.84+762.499C1120.84+758.186+1120.68+753.618+1119.83+749.394C1118.25+741.503+1116.36+727.422+1119.58+719.909C1127.97+700.33+1167.08+648.883+1195.69+658.418C1200.81+660.124+1212.57+689.398+1213.33+695.464C1216.36+719.682+1224.45+747.956+1219.38+773.336C1217.55+782.467+1208.54+794.655+1208.54+803.325" fill="none" stroke-linecap="round" opacity="1"/>
<path stroke-linejoin="round" stroke-width="15.2731" stroke="#000000" stroke-opacity="0.671674" d="M836.113+788.798C889.155+788.798+943.885+782.764+996.361+777.517C1017.63+775.39+1035.2+763.704+1055.95+760.74C1086.96+756.31+1120.9+764.125+1149.67+774.914C1190.53+790.238+1190.95+804.55+1213.02+831.03C1220.86+840.448+1232.83+848.816+1237.31+862.269C1242.57+878.043+1222.08+899.775+1212.44+909.418C1206.99+914.861+1192.95+915.874+1185.82+917.517C1151.93+925.34+1106.18+924.066+1079.96+897.848C1076.7+894.589+1056.06+901.03+1051.61+901.03C1033.52+901.03+1011.21+897.772+993.469+901.319C983.107+903.391+973.723+908.551+962.808+908.551C932.748+908.551+904.489+901.19+876.609+890.038C867.435+886.368+842.616+872.393+835.534+872.393" fill="none" stroke-linecap="round" opacity="1"/>
<path stroke-linejoin="round" stroke-width="15.2731" stroke="#000000" stroke-opacity="0.671674" d="M769.006+888.028C769.006+895.596+789.835+935.973+792.977+951.685C795.692+965.26+800.514+978.927+801.767+992.702C802.368+999.312+807.625+1009.75+804.963+1016.41C799.763+1029.41+773.918+1040.59+762.614+1046.24C757.892+1048.6+748.556+1044.93+744.502+1043.57C720.777+1035.67+707.857+993.248+701.621+972.46C696.486+955.345+697.422+938.248+675.519+942.629C648.479+948.038+676.366+1004.59+667.795+1021.73C662.628+1032.07+630.19+1017.16+624.38+1011.35C608.338+995.305+601.611+959.546+596.414+954.349C596.138+954.073+595.516+954.531+595.349+954.615C586.624+958.978+578.55+972.396+572.709+980.184C558.374+999.298+550.575+1024.85+525.566+1033.19C470.373+1051.59+431.806+991.418+418.761+949.022C413.996+933.535+410.163+912.994+412.369+896.818C412.734+894.137+417.225+880.571+420.892+880.571" fill="none" stroke-linecap="round" opacity="1"/>
<path stroke-linejoin="round" stroke-width="15.2731" stroke="#000000" stroke-opacity="0.671674" d="M421.778+873.639C416.082+890.728+398.404+899.288+389.618+913.932C382.199+926.297+371.127+934.537+358.197+942.765C337.639+955.848+312.538+978.243+293.138+952.376C278.565+932.945+280.79+854.585+282.418+828.541C282.841+821.768+287.332+789.358+295.356+789.358" fill="none" stroke-linecap="round" opacity="1"/>
<path stroke-linejoin="round" stroke-width="15.2731" stroke="#000000" stroke-opacity="0.671674" d="M808.497+1012.29C827.318+1037.39+834.348+1038.28+802.17+1050.65C795.207+1053.33+789.569+1058.55+782.002+1056.39C774.024+1054.11+770.86+1044.06+765.59+1038.79C765.195+1038.39+764.904+1037.35+764.404+1037.6C757.155+1041.23+760.709+1060.05+756.693+1066.08C751.088+1074.48+719.979+1062.67+712.797+1058.36C700.507+1050.99+701.527+1021.99+701.527+1010.12C701.527+1008.59+702.787+993.906+704.492+993.906" fill="none" stroke-linecap="round" opacity="1"/>
<path stroke-linejoin="round" stroke-width="15.2731" stroke="#000000" stroke-opacity="0.671674" d="M657.433+1006.76C657.433+1019.56+681.322+1052.4+674.636+1064.1C669.292+1073.45+658.86+1073.59+649.129+1073.59C624.247+1073.59+596.645+1051.39+589.02+1028.51C586.541+1021.07+618.283+1000.13+618.283+994.499" fill="none" stroke-linecap="round" opacity="1"/>
<path stroke-linejoin="round" stroke-width="15.2731" stroke="#000000" stroke-opacity="0.671674" d="M534.633+1027.39C534.633+1051.09+537.719+1074.11+509.733+1074.11C501.158+1074.11+490.994+1073.33+483.434+1068.8C473.176+1062.64+471.347+1044.12+473.362+1032.71C474.461+1026.48+479.25+1021.59+482.874+1016.76C483.076+1016.49+483.434+1015.58+483.434+1015.92C483.434+1025.87+453.183+1060.38+441.747+1065.72C437.115+1067.88+432.504+1069.95+428.038+1072.44C427.712+1072.62+422.792+1076.39+422.443+1075.51C415.081+1057.11+418.643+1035.48+430.277+1020.68C436.263+1013.06+441.913+1005.33+448.182+998.015C448.681+997.433+450.64+996.776+450.141+995.777C444.546+984.588+399.358+1008.33+392.787+1008.93C390.331+1009.15+378.862+1012.69+377.399+1009.77C373.119+1001.21+418.392+968.638+428.318+968.638" fill="none" stroke-linecap="round" opacity="1"/>
<path stroke-linejoin="round" stroke-width="15.2731" stroke="#000000" stroke-opacity="0.671674" d="M387.191+912.404C387.191+927.896+393.838+942.707+398.942+957.168C401.795+965.252+405.926+974.695+406.775+983.187C407.47+990.129+409.97+993.818+407.055+1000.81C404.738+1006.37+400.778+1018.56+396.704+1022.64C392.917+1026.42+378.385+1010.19+376.84+1008.37C367.671+997.53+333.847+952.425+319.206+956.608C300.384+961.986+283.389+1046.41+239.75+1002.77C221.183+984.203+235.816+919.184+255.977+907.088C262.145+903.387+272.552+905.13+279.478+905.13" fill="none" stroke-linecap="round" opacity="1"/>
<path stroke-linejoin="round" stroke-width="15.2731" stroke="#000000" stroke-opacity="0.671674" d="M273.404+901.931C268.593+901.931+227.698+906.504+226.338+907.864C224.552+909.65+219.323+913.651+215.659+911.819C186.486+897.232+205.62+821.691+233.062+812.544C263.818+802.292+277.078+827.178+285.27+827.178" fill="none" stroke-linecap="round" opacity="1"/>
<path stroke-linejoin="round" stroke-width="15.2731" stroke="#000000" stroke-opacity="0.671674" d="M138.042+573.685C138.042+568.582+134.017+530.931+132.732+524.507C131.915+520.42+127.006+507.329+128.807+503.727C131.904+497.532+148.193+507.414+150.972+509.73C166.614+522.764+175.273+523.179+180.064+547.133C180.561+549.62+183.272+555.264+181.911+557.985C178.802+564.204+138.966+565.401+138.966+583.844" fill="none" stroke-linecap="round" opacity="1"/>
<path stroke-linejoin="round" stroke-width="15.2731" stroke="#000000" stroke-opacity="0.671674" d="M106.18+567.452C109.077+557.971+113.698+543.172+107.565+533.973C102.03+525.671+81.9074+514.406+75.0103+528.201C66.2538+545.714+77.4978+549.57+91.1724+557.985C94.3315+559.929+104.771+572.065+106.18+567.452Z" fill="none" stroke-linecap="round" opacity="1"/>
<path stroke-linejoin="round" stroke-width="15.2731" stroke="#000000" stroke-opacity="0.671674" d="M207.819+617.815C207.819+573.357+218.836+530.256+218.836+485.609C218.836+480.242+217.116+443.575+220.41+440.281C228.803+431.889+264.269+424.368+275.811+416.673C287.307+409.009+301.459+404.538+314.843+401.564C327.131+398.833+336.88+392.159+349.783+390.547C400.358+384.225+445.605+412.569+489.543+432.097C521.675+446.378+556.126+458.753+585.55+478.369C610.192+494.797+637.664+505.88+661.726+523.067C669.631+528.714+690.816+545.102+697.925+545.102" fill="none" stroke-linecap="round" opacity="1"/>
<path stroke-linejoin="round" stroke-width="15.2731" stroke="#000000" stroke-opacity="0.671674" d="M701.662+544.643C720.04+559.346+742.657+564.984+756.483+583.419C763.114+592.26+766.808+603.4+771.86+613.503C813.302+696.39+806.568+748.823+813.309+836.463C815.05+859.088+816.652+881.371+816.652+903.651" fill="none" stroke-linecap="round" opacity="1"/>
<path stroke-linejoin="round" stroke-width="15.2731" stroke="#000000" stroke-opacity="0.671674" d="M811.979+899.267C796.775+899.267+783.095+893.347+766.663+895.538C740.843+898.981+717.375+913.02+693.238+921.065C658.373+932.686+632.475+967.452+595.148+972.118C556.465+976.953+518.757+952.181+493.902+924.22C487.062+916.526+477.198+904.539+467.802+899.841C457.854+894.867+448.451+888.443+437.686+885.213C427.162+882.056+416.175+882.746+405.85+878.616C390.427+872.447+379.13+857.083+364.262+849.648C355.734+845.384+339.839+839.279+333.286+832.726" fill="none" stroke-linecap="round" opacity="1"/>
<path stroke-linejoin="round" stroke-width="15.2731" stroke="#000000" stroke-opacity="0.671674" d="M334.875+830.636C319.4+830.636+306.394+804.746+298.471+794.56C291.569+785.687+265.316+748.077+261.74+739.136C252.1+715.034+252.582+691.631+239.439+665.345C233.651+653.769+208.611+625.318+208.611+614.184" fill="none" stroke-linecap="round" opacity="1"/>
</g>
</g>
<g id="Layer_6" inkpad:layerName="Layer 1" visibility="hidden">
<g opacity="1">
<path stroke-linejoin="bevel" stroke-width="15.2731" stroke="#084e1a" d="M212.889+457.129C190.16+457.129+168.116+448.043+144.237+450.431C130.996+451.755+114.951+459.86+103.381+466.171C67.0631+485.981+43.6516+509.228+54.4874+552.572C56.9854+562.564+53.6576+583.01+62.1898+589.409C73.3972+597.815+86.6918+593.142+99.6973+594.768C117.05+596.937+188.903+611.302+197.819+620.219" fill="none" stroke-linecap="round" opacity="1"/>
<path stroke-linejoin="bevel" stroke-width="15.2731" stroke="#084e1a" d="M124.456+451.026C113.162+436.908+97.021+422.628+78.9519+418.458C71.7703+416.8+63.2014+415.489+58.2543+422.415C53.8604+428.566+51.0092+461.13+56.2759+466.397C57.9344+468.055+62.051+468.768+64.1897+470.506C65.7501+471.774+71.4062+477.354+73.1688+477.354" fill="none" stroke-linecap="round" opacity="1"/>
<path stroke-linejoin="bevel" stroke-width="15.2731" stroke="#084e1a" d="M130.544+451.635C130.544+435.758+136.175+419.289+136.175+403.695C136.175+398.01+137.61+392.233+137.849+386.498C137.871+385.963+139.192+377.341+139.523+377.671C140.513+378.661+145.216+396.334+146.676+399.739C152.46+413.236+162.94+424.171+170.569+436.568C171.597+438.239+181.62+452.759+182.744+451.635" fill="none" stroke-linecap="round" opacity="1"/>
<path stroke-linejoin="bevel" stroke-width="15.2731" stroke="#084e1a" d="M194.074+440.794C198.908+439.183+204.45+433.772+207.619+429.812C211.007+425.577+216.617+421.516+218.967+416.816C224.406+405.939+186.695+385.075+180.712+377.097C173.055+366.887+173.94+352.678+173.94+340.672C173.94+338.635+173.625+318.107+173.94+317.792C180.205+311.527+196.2+333.821+199.199+337.194C214.602+354.523+229.785+373.96+243.128+393.021C247.699+399.551+259.053+412.641+259.053+420.66" fill="none" stroke-linecap="round" opacity="1"/>
<path stroke-linejoin="bevel" stroke-width="15.2731" stroke="#084e1a" d="M252.016+418.178C252.016+405.022+243.812+393.326+241.973+380.448C236.896+344.913+239.554+298.364+257.173+267.53C269.833+245.377+285.125+240.308+310.375+243.915C313.366+244.343+321.474+244.429+323.404+246.358C330.271+253.225+331.952+272.751+335.618+281.917C342.2+298.372+355.526+313.045+363.305+328.604C366.964+335.922+368.6+344.557+370.362+352.49C370.439+352.837+371.241+355.205+371.448+355.205C373.802+355.205+373.891+341.79+373.891+340.547C373.891+326.506+372.63+313.088+370.905+299.289C366.706+265.693+372.079+196.928+409.449+184.471C457.968+168.297+490.811+204.324+503.909+247.987C510.256+269.142+509.777+300.415+512.052+323.175C515.472+357.37+493.052+393.221+493.052+419.535" fill="none" stroke-linecap="round" opacity="1"/>
<path stroke-linejoin="bevel" stroke-width="15.2731" stroke="#084e1a" d="M495.243+413.04C495.243+406.48+503.93+398.774+507.745+393.918C537.447+356.116+553.144+356.431+597.467+351.999C600.271+351.719+634.563+350.485+635.341+351.264C638.028+353.95+635.345+373.678+634.606+377.004C629.506+399.952+635.043+424.23+627.62+446.502C626.403+450.151+612.713+476.823+617.324+481.434C617.67+481.781+618.304+481.434+618.794+481.434C626.051+481.434+638.952+466.395+645.638+462.681C671.424+448.355+693.211+437.115+722.122+430.69C726.025+429.822+747.871+423.713+751.907+427.748C752.996+428.837+750.588+430.732+750.068+431.425C742.192+441.926+735.141+454.771+730.212+467.093C721.733+488.29+711.826+526.707+711.826+549.461" fill="none" stroke-linecap="round" opacity="1"/>
<path stroke-linejoin="bevel" stroke-width="15.2731" stroke="#084e1a" d="M715.642+547.499C726.162+526.458+753.891+508.102+776.992+505.536C784.389+504.714+793.671+504.062+801.041+505.536C804.633+506.254+810.612+510.934+810.612+510.934C810.612+510.934+819.498+510.298+823.618+511.671C833.548+514.981+844.972+521.249+849.876+531.057C870.987+573.278+841.847+580.137+813.311+598.297C805.933+602.992+783.562+615.637+785.09+624.8" fill="none" stroke-linecap="round" opacity="1"/>
<path stroke-linejoin="bevel" stroke-width="15.2731" stroke="#084e1a" d="M844.128+781.652C844.128+767.984+820.738+733.863+814.139+720.665C794.276+680.938+839.037+650.417+862.777+670.766C870.186+677.116+894.572+738.655+899.823+750.906C902.284+756.648+905.569+780.896+907.888+780.896" fill="none" stroke-linecap="round" opacity="1"/>
<path stroke-linejoin="bevel" stroke-width="15.2731" stroke="#084e1a" d="M940.649+757.459C940.649+746.467+941.7+734.82+940.145+723.941C938.515+712.528+931.033+703.616+934.349+691.179C939.993+670.013+961.416+650.302+979.459+641.281C987.646+637.187+999.685+670.566+1000.88+675.05C1008.69+704.343+1007.69+737.09+1011.97+767.035C1012.8+772.869+1012.33+788.062+1016.51+792.237C1016.73+792.465+1016.76+789.238+1016.76+788.708C1016.76+784.012+1016.23+779.518+1016+774.848C1015.41+763.039+1015.09+751.112+1016+739.314C1017.57+718.882+1017.62+712.742+1018.02+712.348C1025.02+705.35+1031.28+695.554+1038.68+688.155C1045.02+681.817+1053.26+677.356+1059.6+671.018C1063.63+666.993+1067.94+660.297+1073.21+657.662C1074.12+657.207+1075.22+658.917+1075.73+659.426C1082.99+666.686+1087.12+684.998+1091.1+694.96C1097.77+711.627+1105.78+729.87+1113.78+745.866C1114.74+747.786+1122.34+761.757+1121.09+763.003C1120.74+763.349+1120.84+762.558+1120.84+762.499C1120.84+758.186+1120.68+753.618+1119.83+749.394C1118.25+741.503+1116.36+727.422+1119.58+719.909C1127.97+700.33+1167.08+648.883+1195.69+658.418C1200.81+660.124+1212.57+689.398+1213.33+695.464C1216.36+719.682+1224.45+747.956+1219.38+773.336C1217.55+782.467+1208.54+794.655+1208.54+803.325" fill="none" stroke-linecap="round" opacity="1"/>
<path stroke-linejoin="bevel" stroke-width="15.2731" stroke="#084e1a" d="M836.113+788.798C889.155+788.798+943.885+782.764+996.361+777.517C1017.63+775.39+1035.2+763.704+1055.95+760.74C1086.96+756.31+1120.9+764.125+1149.67+774.914C1190.53+790.238+1190.95+804.55+1213.02+831.03C1220.86+840.448+1232.83+848.816+1237.31+862.269C1242.57+878.043+1222.08+899.775+1212.44+909.418C1206.99+914.861+1192.95+915.874+1185.82+917.517C1151.93+925.34+1106.18+924.066+1079.96+897.848C1076.7+894.589+1056.06+901.03+1051.61+901.03C1033.52+901.03+1011.21+897.772+993.469+901.319C983.107+903.391+973.723+908.551+962.808+908.551C932.748+908.551+904.489+901.19+876.609+890.038C867.435+886.368+842.616+872.393+835.534+872.393" fill="none" stroke-linecap="round" opacity="1"/>
<path stroke-linejoin="bevel" stroke-width="15.2731" stroke="#084e1a" d="M769.006+888.028C769.006+895.596+789.835+935.973+792.977+951.685C795.692+965.26+800.514+978.927+801.767+992.702C802.368+999.312+807.625+1009.75+804.963+1016.41C799.763+1029.41+773.918+1040.59+762.614+1046.24C757.892+1048.6+748.556+1044.93+744.502+1043.57C720.777+1035.67+707.857+993.248+701.621+972.46C696.486+955.345+697.422+938.248+675.519+942.629C648.479+948.038+676.366+1004.59+667.795+1021.73C662.628+1032.07+630.19+1017.16+624.38+1011.35C608.338+995.305+601.611+959.546+596.414+954.349C596.138+954.073+595.516+954.531+595.349+954.615C586.624+958.978+578.55+972.396+572.709+980.184C558.374+999.298+550.575+1024.85+525.566+1033.19C470.373+1051.59+431.806+991.418+418.761+949.022C413.996+933.535+410.163+912.994+412.369+896.818C412.734+894.137+417.225+880.571+420.892+880.571" fill="none" stroke-linecap="round" opacity="1"/>
<path stroke-linejoin="bevel" stroke-width="15.2731" stroke="#084e1a" d="M421.778+873.639C416.082+890.728+398.404+899.288+389.618+913.932C382.199+926.297+371.127+934.537+358.197+942.765C337.639+955.848+312.538+978.243+293.138+952.376C278.565+932.945+280.79+854.585+282.418+828.541C282.841+821.768+287.332+789.358+295.356+789.358" fill="none" stroke-linecap="round" opacity="1"/>
<path stroke-linejoin="bevel" stroke-width="15.2731" stroke="#084e1a" d="M808.497+1012.29C827.318+1037.39+834.348+1038.28+802.17+1050.65C795.207+1053.33+789.569+1058.55+782.002+1056.39C774.024+1054.11+770.86+1044.06+765.59+1038.79C765.195+1038.39+764.904+1037.35+764.404+1037.6C757.155+1041.23+760.709+1060.05+756.693+1066.08C751.088+1074.48+719.979+1062.67+712.797+1058.36C700.507+1050.99+701.527+1021.99+701.527+1010.12C701.527+1008.59+702.787+993.906+704.492+993.906" fill="none" stroke-linecap="round" opacity="1"/>
<path stroke-linejoin="bevel" stroke-width="15.2731" stroke="#084e1a" d="M657.433+1006.76C657.433+1019.56+681.322+1052.4+674.636+1064.1C669.292+1073.45+658.86+1073.59+649.129+1073.59C624.247+1073.59+596.645+1051.39+589.02+1028.51C586.541+1021.07+618.283+1000.13+618.283+994.499" fill="none" stroke-linecap="round" opacity="1"/>
<path stroke-linejoin="bevel" stroke-width="15.2731" stroke="#084e1a" d="M534.633+1027.39C534.633+1051.09+537.719+1074.11+509.733+1074.11C501.158+1074.11+490.994+1073.33+483.434+1068.8C473.176+1062.64+471.347+1044.12+473.362+1032.71C474.461+1026.48+479.25+1021.59+482.874+1016.76C483.076+1016.49+483.434+1015.58+483.434+1015.92C483.434+1025.87+453.183+1060.38+441.747+1065.72C437.115+1067.88+432.504+1069.95+428.038+1072.44C427.712+1072.62+422.792+1076.39+422.443+1075.51C415.081+1057.11+418.643+1035.48+430.277+1020.68C436.263+1013.06+441.913+1005.33+448.182+998.015C448.681+997.433+450.64+996.776+450.141+995.777C444.546+984.588+399.358+1008.33+392.787+1008.93C390.331+1009.15+378.862+1012.69+377.399+1009.77C373.119+1001.21+418.392+968.638+428.318+968.638" fill="none" stroke-linecap="round" opacity="1"/>
<path stroke-linejoin="bevel" stroke-width="15.2731" stroke="#084e1a" d="M387.191+912.404C387.191+927.896+393.838+942.707+398.942+957.168C401.795+965.252+405.926+974.695+406.775+983.187C407.47+990.129+409.97+993.818+407.055+1000.81C404.738+1006.37+400.778+1018.56+396.704+1022.64C392.917+1026.42+378.385+1010.19+376.84+1008.37C367.671+997.53+333.847+952.425+319.206+956.608C300.384+961.986+283.389+1046.41+239.75+1002.77C221.183+984.203+235.816+919.184+255.977+907.088C262.145+903.387+272.552+905.13+279.478+905.13" fill="none" stroke-linecap="round" opacity="1"/>
<path stroke-linejoin="bevel" stroke-width="15.2731" stroke="#084e1a" d="M273.404+901.931C268.593+901.931+227.698+906.504+226.338+907.864C224.552+909.65+219.323+913.651+215.659+911.819C186.486+897.232+205.62+821.691+233.062+812.544C263.818+802.292+277.078+827.178+285.27+827.178" fill="none" stroke-linecap="round" opacity="1"/>
<path stroke-linejoin="bevel" stroke-width="15.2731" stroke="#084e1a" d="M138.042+573.685C138.042+568.582+134.017+530.931+132.732+524.507C131.915+520.42+127.006+507.329+128.807+503.727C131.904+497.532+148.193+507.414+150.972+509.73C166.614+522.764+175.273+523.179+180.064+547.133C180.561+549.62+183.272+555.264+181.911+557.985C178.802+564.204+138.966+565.401+138.966+583.844" fill="none" stroke-linecap="round" opacity="1"/>
<path stroke-linejoin="bevel" stroke-width="15.2731" stroke="#084e1a" d="M106.18+567.452C109.077+557.971+113.698+543.172+107.565+533.973C102.03+525.671+81.9074+514.406+75.0103+528.201C66.2538+545.714+77.4978+549.57+91.1724+557.985C94.3315+559.929+104.771+572.065+106.18+567.452Z" fill="none" stroke-linecap="round" opacity="1"/>
<path stroke-linejoin="bevel" stroke-width="15.2731" stroke="#084e1a" d="M207.819+617.815C207.819+573.357+218.836+530.256+218.836+485.609C218.836+480.242+217.116+443.575+220.41+440.281C228.803+431.889+264.269+424.368+275.811+416.673C287.307+409.009+301.459+404.538+314.843+401.564C327.131+398.833+336.88+392.159+349.783+390.547C400.358+384.225+445.605+412.569+489.543+432.097C521.675+446.378+556.126+458.753+585.55+478.369C610.192+494.797+637.664+505.88+661.726+523.067C669.631+528.714+690.816+545.102+697.925+545.102" fill="none" stroke-linecap="round" opacity="1"/>
<path stroke-linejoin="bevel" stroke-width="15.2731" stroke="#084e1a" d="M701.662+544.643C720.04+559.346+742.657+564.984+756.483+583.419C763.114+592.26+766.808+603.4+771.86+613.503C813.302+696.39+806.568+748.823+813.309+836.463C815.05+859.088+816.652+881.371+816.652+903.651" fill="none" stroke-linecap="round" opacity="1"/>
<path stroke-linejoin="bevel" stroke-width="15.2731" stroke="#084e1a" d="M811.979+899.267C796.775+899.267+783.095+893.347+766.663+895.538C740.843+898.981+717.375+913.02+693.238+921.065C658.373+932.686+632.475+967.452+595.148+972.118C556.465+976.953+518.757+952.181+493.902+924.22C487.062+916.526+477.198+904.539+467.802+899.841C457.854+894.867+448.451+888.443+437.686+885.213C427.162+882.056+416.175+882.746+405.85+878.616C390.427+872.447+379.13+857.083+364.262+849.648C355.734+845.384+339.839+839.279+333.286+832.726" fill="none" stroke-linecap="round" opacity="1"/>
<path stroke-linejoin="bevel" stroke-width="15.2731" stroke="#084e1a" d="M334.875+830.636C319.4+830.636+306.394+804.746+298.471+794.56C291.569+785.687+265.316+748.077+261.74+739.136C252.1+715.034+252.582+691.631+239.439+665.345C233.651+653.769+208.611+625.318+208.611+614.184" fill="none" stroke-linecap="round" opacity="1"/>
</g>
</g>
</svg>
