<svg xmlns="http://www.w3.org/2000/svg" xmlns:xlink="http://www.w3.org/1999/xlink" xmlns:lucid="lucid" width="1108.35" height="1351.31"><g transform="translate(2365.55 1900)" lucid:page-tab-id="0_0"><path d="M-2500-2000h1500v1500h-1500z" fill="#fff"/><path d="M-1943.3-1640h120v120h-120v-120z" stroke="#fff" stroke-opacity="0" stroke-width="2" fill="#3b48cc"/><path d="M-1874.63-1562.8l2.23-2.28-4.58-4.52 5.12-3.83-1.92-2.57-6.63 4.96-.2.17c-.6.64-.6 1.64.04 2.26zM-1856.82-1568.25l-5.12 3.85 1.92 2.56 6.62-4.96c.4-.3.6-.7.65-1.18.03-.5-.14-.9-.5-1.25l-5.92-5.76-2.23 2.3z" stroke="#fff" stroke-opacity="0" stroke-width="2" fill="#fff"/><path d="M-1872.64-1559.05l8.45-19.2 2.93 1.3-8.45 19.2-2.92-1.3z" stroke="#fff" stroke-opacity="0" stroke-width=".81" fill="#fff"/><path d="M-1841.88-1606.8l-4.45-3.76-7.14-5.84-1.85-1.6c-.34-.32-.67-.4-1-.4h-59.4c0-.88-.66-1.6-1.6-1.6h-6.37c-.83 0-1.58.72-1.58 1.6v16c0 .88.75 1.6 1.6 1.6h6.37v59.2c0 .88.75 1.6 1.6 1.6h17.63c.84 0 1.6-.72 1.6-1.6v-62.4h28.8v11.76l-17.97 7.44h-1.26c-.93 0-1.6.72-1.6 1.6v28.8c0 .88.67 1.6 1.6 1.6h41.57c.93 0 1.6-.72 1.6-1.6v-28.8c0-.88-.67-1.6-1.6-1.6h-1.26l-17.88-7.44V-1604h21.6c.66 0 1.25-.4 1.5-1.04s0-1.36-.5-1.76zm-15.04-8.32l-8.23 7.44-9.9-7.52h18.13zm-41.15 8h-12.77l7.9-6 7.8 5.92zm-15.2 32.72l13.6-12.08v24.16zm12.76 15.6l-13.53 12.08v-24.16zm-13.53-19.2v-24.08l13.52 12.08zm13.7-37.2h19.98l-10 7.52zm22.67 2l7.9 6h-15.88zm-28.05-2l-10 7.6v-7.6zm-13.2 11.2h-3.2v-12.8h3.2v12.8zm5.63 60.8l13.6-12v12zm13.6-50.4l-11.84-10.4h11.83zm52.75 37.52h-38.4v-25.6h38.4zm-30.4-28.8l11.25-4.64 11.17 4.64zm16.37-22.4l6.47-5.84 7.22 5.92z" stroke="#fff" stroke-opacity="0" stroke-width="2" fill="#fff"/><path d="M-1925.3-1640c0 9.94-8.06 18-18 18s-18-8.06-18-18 8.06-18 18-18 18 8.06 18 18z" fill="#693cc5"/><use xlink:href="#a" transform="matrix(1,0,0,1,-1973.3,-1511) translate(25.075000000000003 13.799999999999999)"/><path d="M-2234.38-1305.67h-63.94c-.94 0-1.68-.8-1.68-1.68V-1384c0-.87.74-1.67 1.68-1.67h63.94c.94 0 1.68.8 1.68 1.68v76.65c0 .88-.74 1.68-1.68 1.68zm-62.2-3.44h60.45v-73.13h-60.44z" stroke="#fff" stroke-opacity="0" fill="#cd2264"/><path d="M-2280.73-1361.5h-11.17c-.95 0-1.7-.77-1.7-1.72v-11.16c0-.95.75-1.7 1.7-1.7h11.17c.95 0 1.7.75 1.7 1.7v11.16c0 .95-.75 1.7-1.7 1.7zm-9.47-3.42h7.76v-7.75h-7.76zM-2286.32-1337.58c-4.02 0-7.3-3.27-7.3-7.3 0-4 3.28-7.27 7.3-7.27 4.03 0 7.3 3.26 7.3 7.28 0 4.02-3.27 7.3-7.3 7.3zm0-11.16c-2.14 0-3.88 1.73-3.88 3.87 0 2.15 1.74 3.88 3.88 3.88 2.15 0 3.88-1.72 3.88-3.87 0-2.14-1.73-3.87-3.88-3.87zM-2286.32-1310.45c-4.08 0-7.3-4.26-7.3-9.68 0-5.43 3.22-9.7 7.3-9.7 4.1 0 7.3 4.27 7.3 9.7 0 5.42-3.2 9.68-7.3 9.68zm0-15.96c-2.2 0-3.88 2.86-3.88 6.27 0 3.4 1.7 6.27 3.88 6.27 2.2 0 3.88-2.87 3.88-6.27 0-3.4-1.76-6.28-3.88-6.28zM-2246.38-1339.18c-5.1 0-8.9-2.43-8.9-5.7 0-3.24 3.83-5.67 8.9-5.67s8.9 2.43 8.9 5.68c0 3.26-3.85 5.7-8.9 5.7zm0-7.97c-3.3 0-5.48 1.36-5.48 2.28 0 .92 2.17 2.3 5.48 2.3 3.3 0 5.48-1.4 5.48-2.3 0-.9-2.2-2.28-5.48-2.28zM-2240.78-1361.5h-14.4c-.93 0-1.7-.77-1.7-1.7 0-.32.08-.58.22-.85l7.2-12.77c.45-.8 1.5-1.1 2.32-.63.3.16.48.35.64.63l7.2 12.77c.3.55.3 1.16 0 1.7-.33.55-.86.84-1.48.84zm-11.48-3.42h8.52l-4.23-7.6z" stroke="#fff" stroke-opacity="0" fill="#cd2264"/><path d="M-2253.17-1323.72l2.4-2.4 11.2 11.17-2.42 2.4-11.17-11.17z" stroke="#fff" stroke-opacity="0" stroke-width=".71" fill="#cd2264"/><path d="M-2253.17-1314.95l11.18-11.17 2.42 2.4-11.2 11.18-2.4-2.4z" stroke="#fff" stroke-opacity="0" stroke-width=".71" fill="#cd2264"/><path d="M-2263.55-1363.6l-2.4-2.5 3.6-3.57-3.6-3.52 2.4-2.4 4.8 4.8c.66.66.66 1.73 0 2.4z" stroke="#fff" stroke-opacity="0" fill="#cd2264"/><path d="M-2275.93-1371.3h14.38v3.4h-14.38v-3.4zM-2263.55-1338.08l-2.4-2.48 3.6-3.58-3.6-3.6 2.4-2.4 4.8 4.8c.66.66.66 1.73 0 2.4z" stroke="#fff" stroke-opacity="0" fill="#cd2264"/><path d="M-2275.93-1345.77h14.38v3.4h-14.38v-3.4zM-2263.55-1312.54l-2.4-2.5 3.6-3.56-3.6-3.6 2.4-2.4 4.8 4.8c.66.65.66 1.73 0 2.4z" stroke="#fff" stroke-opacity="0" fill="#cd2264"/><path d="M-2275.93-1320.24h14.38v3.4h-14.38v-3.4z" stroke="#fff" stroke-opacity="0" fill="#cd2264"/><use xlink:href="#b" transform="matrix(1,0,0,1,-2330,-1296.6666666666667) translate(22.5 13.799999999999999)"/><path d="M-2094.38-1305.67h-63.94c-.94 0-1.68-.8-1.68-1.68V-1384c0-.87.74-1.67 1.68-1.67h63.94c.94 0 1.68.8 1.68 1.68v76.65c0 .88-.74 1.68-1.68 1.68zm-62.2-3.44h60.45v-73.13h-60.44z" stroke="#fff" stroke-opacity="0" fill="#cd2264"/><path d="M-2135.93-1361.5h-11.18c-.96 0-1.72-.77-1.72-1.72v-11.16c0-.95.76-1.7 1.7-1.7h11.2c.94 0 1.7.75 1.7 1.7v11.16c0 .95-.76 1.7-1.7 1.7zm-9.5-3.42h7.8v-7.75h-7.8zM-2135.93-1339.18h-11.18c-.96 0-1.72-.76-1.72-1.7v-11.17c0-.94.76-1.7 1.7-1.7h11.2c.94 0 1.7.76 1.7 1.7v11.16c0 .96-.76 1.72-1.7 1.72zm-9.5-3.4h7.8v-7.76h-7.8zM-2135.93-1316.83h-11.18c-.96 0-1.72-.76-1.72-1.7v-11.17c0-.95.76-1.7 1.7-1.7h11.2c.94 0 1.7.75 1.7 1.7v11.16c0 .95-.76 1.7-1.7 1.7zm-9.5-3.4h7.8v-7.76h-7.8zM-2129.54-1368.12h27.16v3.4h-27.16v-3.4zM-2129.54-1345.77h27.16v3.4h-27.16v-3.4zM-2129.54-1323.44h27.16v3.4h-27.16v-3.4z" stroke="#fff" stroke-opacity="0" fill="#cd2264"/><use xlink:href="#c" transform="matrix(1,0,0,1,-2190,-1296.6666666666667) translate(25 6.1999999999999975)"/><use xlink:href="#d" transform="matrix(1,0,0,1,-2190,-1296.6666666666667) translate(29.549999999999997 27.799999999999997)"/><path d="M-1940-1238h-80v-24h80zm-76.56-3.38h73.12v-17.23h-73.12zM-1981.5-1210.98h-38.5v-24.04h38.5zm-35.1-3.4h31.7v-17.25h-31.7zM-1995.85-1184H-2020v-24h24.15zm-20.74-3.4h17.35v-17.22h-17.34zM-1967.13-1184h-25.74v-24h25.74zm-22.34-3.4h18.94v-17.22h-18.94zM-1940-1184h-24.15v-24h24.15zm-20.75-3.4h17.34v-17.22h-17.35zM-1940-1210.98h-38.52v-24.04h38.52zm-35.13-3.4h31.74v-17.25h-31.73z" stroke="#fff" stroke-opacity="0" fill="#cd2264"/><path d="M-2018.4-1260.23h76.58v74.44h-76.58v-74.43z" stroke="#fff" stroke-opacity="0" stroke-width=".4" fill="#fff" fill-opacity="0"/><use xlink:href="#e" transform="matrix(1,0,0,1,-2050,-1175) translate(49 13.799999999999999)"/><path d="M-2221.75-1148.9v-1.4c.07-18.67 15.2-33.74 33.8-33.7 17.76.04 32.23 13.66 33.5 31.4l-3.42.2c-.87-16.26-14.34-28.83-30.56-28.65-16.76.2-30.16 13.97-29.96 30.76v1.27z" stroke="#fff" stroke-opacity="0" fill="#d6242d"/><path d="M-2220.4-1147.86v-2.23c.05-9.08 3.93-16.84 11.1-22.3l.24-.13c5-2.95 9.94-4.28 15.78-4.28 13.54-.18 25.05 8.24 29.04 21.2l-3.26.93c-3.54-11.52-13.8-18.98-25.83-18.78-5.12 0-9.55 1.16-14 3.76-6.34 4.84-9.7 11.62-9.7 19.6v2.15zM-2218.16-1138.3l-.46-3.4c3.17-.3 5.8-1.18 8.5-2.86 5.67-4.1 17.54-5.55 24-5.12 4.42.67 8.04 1.8 12 3.8 1.78.87 3.36 1.48 5.2 2.02 3.04.1 5.54-.04 8.57-.48h.27c1-.1 1.97-.2 2.96-.27h.93v-6.16h-.32l-3.1.28-2.3.2-.27-3.4 2.3-.2 2.98-.28.8-.1c1.64-.25 3.16.86 3.35 2.47.07.17.07.32.07.5v6.96c0 1.57-1.25 2.84-2.77 2.93h-.26l-1.06.07-2.9.27h-.25c-3.3.48-6.13.63-9.43.47-2.24-.52-4.08-1.18-6.13-2.2-3.63-1.76-6.93-2.78-10.88-3.4-5.8-.44-16.88.87-21.76 4.44-3.16 2-6.26 3.1-10.02 3.47zm62.43-6.53z" stroke="#fff" stroke-opacity="0" fill="#d6242d"/><path d="M-2171.67-1150.32c-.97-.3-2.05-.7-3.26-1.18-4.34-1.97-8.4-2.84-13.16-2.8-8.26.48-12.3.95-15.33 1.83l-.94-3.28c3.4-.95 7.53-1.47 16.08-1.96 5.3-.08 9.77.85 14.58 3 1.14.47 2.2.84 3 1.08zM-2222.66-1138c-3.66 0-7.25-.66-9.1-2.52-.74-.7-1.06-1.6-.9-2.6.4-2.17 3.2-3.4 7.05-5.12 1.7-.7 3.27-1.44 4.73-2.24l1.7 3c-1.6.88-3.4 1.7-5 2.38-1.77.7-3.2 1.4-4.82 2.38 1.54 1.1 5.4 1.7 10.46 1l.45 3.43c-1.6.2-2.96.3-4.56.3z" stroke="#fff" stroke-opacity="0" fill="#d6242d"/><path d="M-2163.2-1147.28h-6.8c-1.6 0-2.9-1.3-2.9-2.92v-3.74c0-1.6 1.3-2.9 2.9-2.9h6.8c1.6 0 2.9 1.3 2.9 2.9v3.74c0 1.6-1.3 2.9-2.9 2.92zm-6.3-3.42h5.8v-2.66h-5.8zM-2207.2-1142.64c-5.34-.04-9.88-1.7-14-5.12l2.28-2.48c3.52 2.86 7.4 4.22 11.9 4.2z" stroke="#fff" stroke-opacity="0" fill="#d6242d"/><path d="M-2186.94-1184h-1.04c-18.56-.05-33.68 15.04-33.76 33.67v.32c-1.2.6-2.48 1.2-3.84 1.74-3.92 1.75-6.64 3-7.12 5.15-.08.96.24 1.88.96 2.57 1.84 1.9 5.44 2.53 9.04 2.53 1.68 0 3.04-.1 4.64-.28v-.04c3.68-.37 6.8-1.43 9.92-3.45 4.88-3.54 15.92-4.88 21.76-4.42 3.92.6 7.28 1.62 10.88 3.42 2.08 1 3.92 1.65 6.08 2.2 3.36.14 6.16 0 9.44-.46h.32l2.88-.27 1.04-.1h.24c1.6-.1 2.8-1.38 2.8-2.95v-6.94c0-1.28-.72-2.34-1.92-2.8-1.92-16.8-15.52-29.35-32.32-29.9zm-.72 3c15.36.22 27.92 11.63 29.68 26.95l-1.92.18-2.32.18.32 3.42 2.32-.2 3.04-.3h.32v6.16h-.96c-.88.1-1.92.18-2.88.27h-.32c-2.96.46-5.52.6-8.48.5-1.92-.54-3.52-1.14-5.28-2.02-3.92-1.97-7.6-3.12-12-3.8-5.52-.38-15.2.68-21.36 3.62-4.08-.1-7.6-1.3-10.88-3.77v-.5c-.16-16.75 13.2-30.5 29.92-30.74.32 0 .56 0 .8.05zm-32.48 34.03c2.4 1.8 4.8 2.9 7.68 3.63-2.08.92-3.92 1.43-6.16 1.6v.06c-5.04.7-8.8.05-10.4-1 1.68-1.02 3.12-1.7 4.8-2.4 1.36-.56 2.72-1.2 4.08-1.9z" stroke="#fff" stroke-opacity="0" fill="#fff" fill-opacity="0"/><use xlink:href="#f" transform="matrix(1,0,0,1,-2262.7,-1129) translate(-23.35000000000001 13.799999999999999)"/><path d="M-1988.2-1349.57h-12.62c-.93 0-1.7-.76-1.7-1.7v-12.77c0-.94.77-1.7 1.7-1.7h12.62c.93 0 1.7.76 1.7 1.7v12.77c0 .94-.77 1.7-1.7 1.7zm-10.9-3.4h9.2v-9.36h-9.2zM-1971.47-1355.88c-4.92.02-8.93-3.96-8.95-8.9-.02-4.9 3.96-8.92 8.88-8.94 4.93-.02 8.94 3.96 8.96 8.88v.04c.02 4.92-3.96 8.9-8.9 8.92zm0-14.43h-.03c-3.05 0-5.5 2.45-5.5 5.5s2.45 5.5 5.5 5.5 5.5-2.45 5.5-5.5c.03-3.03-2.43-5.5-5.47-5.5zM-1989.82-1371.92h-15.94c-.64 0-1.18-.3-1.5-.86-.3-.54-.3-1.16 0-1.7l8-13.32c.48-.8 1.53-1.05 2.34-.57.23.15.42.32.56.57l8 13.3c.3.56.3 1.18 0 1.72-.32.53-.84.85-1.46.86zm-12.94-3.4h9.94l-4.97-8.3z" stroke="#fff" stroke-opacity="0" fill="#3f8624"/><path d="M-1983.96-1340c-10.83 0-28.1-2.46-28.3-9.1l-7.74-57.2c-.14-.97.43-1.86 1.37-2.06.94-.14 1.88.47 2.1 1.43.8 3.28 13.65 7.86 32.64 7.86 19 0 31.87-4.58 32.66-7.86.22-.96 1.16-1.57 2.1-1.43.94.2 1.5 1.1 1.37 2.05l-7.87 57.2c0 2.26-2.1 4.18-6 5.75-1.8.68-3.4 1.16-5.27 1.57-5.93 1.3-11 1.78-17.06 1.78zm-31.92-61.66l6.93 52.3v.2c0 2.05 9.75 5.8 24.92 5.8 5.78.08 10.62-.47 16.25-1.63 1.73-.4 3.18-.88 4.84-1.56 3.1-1.23 3.83-2.33 3.83-2.67v-.14l7.07-52.23c-6.58 3.9-19.87 6.02-32 6.02-12.13 0-25.28-2.2-31.85-6.08z" stroke="#fff" stroke-opacity="0" fill="#3f8624"/><path d="M-1983.96-1395.68c-16.08 0-34.18-3.65-35.98-10.4V-1407.02v-.23c0-7.52 19.04-12.77 36.12-12.77 17.1 0 35.98 5.25 35.98 12.77v.22l-.07.7v.2c-1.8 6.77-19.9 10.42-36.06 10.42zm-32.66-11.2c1.08 3.3 13.84 7.8 32.66 7.8 18.82 0 31.58-4.5 32.66-7.8v-.45c-.14-3.3-13.63-9.26-32.66-9.26-19.04 0-32.45 5.96-32.74 9.27zM-1947.77-1372.14c-8.07 0-25.83-8-36.92-13.46l1.5-3.06c15.3 7.5 33.36 14.5 36.46 13.18-.24-.48-1.4-2.02-6.83-4.97l-.24-.17 1.68-2.96.25.17c5.47 2.98 8.07 5.3 8.53 7.5.16.93-.08 1.83-.7 2.57-1.04.95-2.32 1.36-3.73 1.2z" stroke="#fff" stroke-opacity="0" fill="#3f8624"/><path d="M-1983.95-1383.4c-2.03 0-3.7-1.66-3.7-3.7s1.67-3.7 3.7-3.7c2.04 0 3.7 1.66 3.7 3.7s-1.66 3.7-3.7 3.7zm0-4c-.17 0-.3.14-.3.3 0 .33.6.33.6 0v-.04c0-.16-.13-.28-.3-.28z" stroke="#fff" stroke-opacity="0" fill="#3f8624"/><use xlink:href="#g" transform="matrix(1,0,0,1,-2050,-1331) translate(36.05 13.799999999999999)"/><path d="M-1741.68-1800h-76.64c-.88 0-1.68-.76-1.68-1.7v-5.12c0-18.18 11.92-33.43 29.52-37.7.48-.1.88-.05 1.28.17 5.92 3.2 12.48 3.2 18.4 0 .4-.22.8-.26 1.2-.17 17.68 4.27 29.6 19.52 29.6 37.7v5.13c0 .94-.8 1.7-1.68 1.7zm-74.88-3.43h73.12v-3.4c.08-16.35-10.56-30.07-26.32-34.17-3.36 1.65-6.48 2.4-10.24 2.4s-6.88-.7-10.24-2.4c-15.76 4.1-26.4 17.82-26.32 34.18z" stroke="#fff" stroke-opacity="0" fill="#232f3e"/><path d="M-1780-1838.7c-3.67 0-6.8-.78-10.03-2.56-9.95-5.58-13.5-18.2-7.93-28.17 5.58-9.95 18.17-13.5 28.1-7.93 6.72 3.76 10.56 10.33 10.56 18.05 0 7.76-3.93 14.36-10.74 18.04-3.22 1.73-6.32 2.56-9.95 2.56zm0-37.83c-6.6-.17-12.26 3.18-15.44 8.96-4.5 8.4-1.4 18.8 6.94 23.34 5.4 2.93 11.36 2.93 16.77 0 5.7-3.1 9-8.68 8.96-15.2-.04-9.5-7.76-17.14-17.22-17.1z" stroke="#fff" stroke-opacity="0" fill="#232f3e"/><use xlink:href="#h" transform="matrix(1,0,0,1,-1850,-1791) translate(11.924999999999997 5.600000000000003)"/><use xlink:href="#i" transform="matrix(1,0,0,1,-1850,-1791) translate(57.224999999999994 5.600000000000003)"/><use xlink:href="#j" transform="matrix(1,0,0,1,-1850,-1791) translate(90.175 5.600000000000003)"/><use xlink:href="#k" transform="matrix(1,0,0,1,-1850,-1791) translate(7.049999999999997 27.200000000000003)"/><use xlink:href="#l" transform="matrix(1,0,0,1,-1850,-1791) translate(43.95 27.200000000000003)"/><use xlink:href="#m" transform="matrix(1,0,0,1,-1850,-1791) translate(104.95 27.200000000000003)"/><use xlink:href="#n" transform="matrix(1,0,0,1,-1850,-1791) translate(2.0999999999999943 48.800000000000004)"/><use xlink:href="#o" transform="matrix(1,0,0,1,-1850,-1791) translate(33.05 48.800000000000004)"/><use xlink:href="#p" transform="matrix(1,0,0,1,-1850,-1791) translate(70 48.800000000000004)"/><path d="M-1944.8-1578.5h-3.9l-2.84.37-2.5 1.04-2.2 1.68-1.66 2.2-1.04 2.5-.37 2.82v130.45h-3v-130.65l.43-3.4 1.35-3.25 2.15-2.8 2.8-2.16 3.25-1.35 3.4-.45h4.12z" fill="#693cc5"/><path d="M-1943.3-1578.5h-1.54v-3h1.54zM-1960.8-1421.68l-4.65-14.27h9.27z" fill="#693cc5"/><path d="M-1960.8-1416.83l-6.7-20.62h13.4zm-2.58-17.62l2.57 7.9 2.56-7.9z" fill="#693cc5"/><use xlink:href="#q" transform="matrix(1,0,0,1,-1960.812416910514,-1517.9705239345706) translate(0.005 14.4)"/><path d="M-2013.4-1347.6h-58.68" stroke="#693cc5" stroke-width="3" fill="none"/><path d="M-2012.27-1349.1l.04.48.17.65.3.68.5.75.46.45h-2.64v-3h1.17z" fill="#693cc5"/><path d="M-2087.85-1347.6l14.27-4.64v9.27z" stroke="#693cc5" stroke-width="3" fill="#693cc5"/><path d="M-2161.5-1345.67h-50.58" stroke="#693cc5" stroke-width="3" fill="none"/><path d="M-2160-1344.17h-1.54v-3h1.54z" fill="#693cc5"/><path d="M-2227.85-1345.67l14.27-4.63v9.27z" stroke="#693cc5" stroke-width="3" fill="#693cc5"/><path d="M-1944.98-1000.36h-76.64c-.88 0-1.68-.76-1.68-1.7v-5.12c0-18.2 11.92-33.43 29.52-37.7.48-.1.88-.05 1.28.17 5.92 3.2 12.48 3.2 18.4 0 .4-.23.8-.28 1.2-.2 17.68 4.3 29.6 19.53 29.6 37.72v5.12c0 .94-.8 1.7-1.68 1.7zm-74.88-3.44h73.12v-3.38c.08-16.36-10.56-30.1-26.32-34.2-3.36 1.66-6.48 2.42-10.24 2.42s-6.88-.7-10.24-2.4c-15.76 4.1-26.4 17.82-26.32 34.18z" stroke="#fff" stroke-opacity="0" fill="#232f3e"/><path d="M-1983.3-1039.07c-3.67 0-6.8-.78-10.03-2.56-9.95-5.57-13.5-18.2-7.93-28.16 5.58-9.95 18.17-13.5 28.1-7.92 6.72 3.76 10.56 10.32 10.56 18.05 0 7.76-3.93 14.37-10.74 18.04-3.22 1.74-6.32 2.56-9.95 2.56zm0-37.83c-6.6-.16-12.26 3.18-15.44 8.97-4.5 8.38-1.4 18.8 6.94 23.33 5.4 2.93 11.36 2.93 16.77 0 5.7-3.1 9-8.67 8.96-15.2-.04-9.5-7.76-17.14-17.22-17.1z" stroke="#fff" stroke-opacity="0" fill="#232f3e"/><use xlink:href="#h" transform="matrix(1,0,0,1,-2053.3,-991.364801127615) translate(14.399999999999999 6.1999999999999975)"/><use xlink:href="#r" transform="matrix(1,0,0,1,-2053.3,-991.364801127615) translate(59.699999999999996 6.1999999999999975)"/><use xlink:href="#s" transform="matrix(1,0,0,1,-2053.3,-991.364801127615) translate(52.525 27.799999999999997)"/><path d="M-2024.44-1012.58H-2328c-6.63 0-12-5.37-12-12V-1149c0-6.63 5.37-12 12-12h87.45" stroke="#693cc5" stroke-width="3" fill="none"/><path d="M-2022.94-1012.58l-.1 1.5h-1.44v-3h1.84z" fill="#693cc5"/><path d="M-2224.78-1161l-14.27 4.64v-9.28z" stroke="#693cc5" stroke-width="3" fill="#693cc5"/><use xlink:href="#t" transform="matrix(1,0,0,1,-2165.425,-1038.1763971276152) translate(0.005000000000002558 14.4)"/><use xlink:href="#u" transform="matrix(1,0,0,1,-2165.425,-1038.1763971276152) translate(76.95500000000001 14.4)"/><path d="M-2192.7-1185.16v-26.5c0-6.63-5.37-12-12-12H-2328c-6.63 0-12-5.38-12-12v-98c0-6.63 5.37-12 12-12h7.38" stroke="#693cc5" stroke-width="3" fill="none"/><path d="M-2191.2-1180.88l-.38.03-.93.18h-1.7v-2.68l2.26-.37.74-.05zm0-2.96l-.74.12-1.02.08-1.24.27v-1.83h3z" fill="#693cc5"/><path d="M-2304.85-1345.67l-14.27 4.64v-9.27z" stroke="#693cc5" stroke-width="3" fill="#693cc5"/><use xlink:href="#v" transform="matrix(1,0,0,1,-2349.55,-1216.1333333333334) translate(0.0049999999999954525 14.4)"/><use xlink:href="#w" transform="matrix(1,0,0,1,-2349.55,-1216.1333333333334) translate(65.85499999999999 14.4)"/><path d="M-2192.7-1185.16V-1211c0-6.63 5.37-12 12-12h140.08" stroke="#693cc5" stroke-width="3" fill="none"/><path d="M-2191.2-1180.88l-.38.03-.93.18h-1.7v-2.68l2.26-.37.74-.05zm0-2.96l-.74.12-1.02.08-1.24.27v-1.83h3z" fill="#693cc5"/><path d="M-2024.85-1223l-14.27 4.64v-9.28z" stroke="#693cc5" stroke-width="3" fill="#693cc5"/><use xlink:href="#x" transform="matrix(1,0,0,1,-2153.2833333333333,-1219) translate(0.005000000000002558 14.4)"/><use xlink:href="#y" transform="matrix(1,0,0,1,-2153.2833333333333,-1219) translate(69.905 14.4)"/><path d="M-1881.8-1660.62h-3v-21.9h3zm70.72-171.3h-60.12l-2.82.38-2.5 1.04-2.2 1.67-1.67 2.18-1.03 2.52-.37 2.82v117.17h-3v-117.38l.45-3.42 1.34-3.24 2.14-2.8 2.8-2.16 3.25-1.35 3.4-.44h60.32z" fill="#693cc5"/><path d="M-1808.53-1834.6l-2.4 2.7h-.2v-3h2.98zM-1883.3-1644.85l-4.64-14.27h9.28z" fill="#693cc5"/><path d="M-1883.3-1640l-6.7-20.62h13.4zm-2.57-17.62l2.57 7.9 2.57-7.9z" fill="#693cc5"/><use xlink:href="#z" transform="matrix(1,0,0,1,-1922.7,-1704.1333333333332) translate(0.005000000000002558 14.4)"/><path d="M-2140-1640h120v120h-120v-120z" stroke="#fff" stroke-opacity="0" stroke-width="2" fill="#3b48cc"/><path d="M-2071.33-1562.8l2.23-2.28-4.58-4.52 5.12-3.83-1.92-2.57-6.63 4.96-.2.17c-.6.64-.6 1.64.04 2.26zM-2053.52-1568.25l-5.12 3.85 1.92 2.56 6.62-4.96c.4-.3.6-.7.65-1.18.03-.5-.14-.9-.5-1.25l-5.92-5.76-2.23 2.3z" stroke="#fff" stroke-opacity="0" stroke-width="2" fill="#fff"/><path d="M-2069.34-1559.05l8.45-19.2 2.93 1.3-8.45 19.2-2.92-1.3z" stroke="#fff" stroke-opacity="0" stroke-width=".81" fill="#fff"/><path d="M-2038.58-1606.8l-4.45-3.76-7.14-5.84-1.85-1.6c-.34-.32-.67-.4-1-.4h-59.4c0-.88-.66-1.6-1.6-1.6h-6.37c-.83 0-1.58.72-1.58 1.6v16c0 .88.75 1.6 1.6 1.6h6.37v59.2c0 .88.75 1.6 1.6 1.6h17.63c.84 0 1.6-.72 1.6-1.6v-62.4h28.8v11.76l-17.97 7.44h-1.26c-.93 0-1.6.72-1.6 1.6v28.8c0 .88.67 1.6 1.6 1.6h41.57c.93 0 1.6-.72 1.6-1.6v-28.8c0-.88-.67-1.6-1.6-1.6h-1.26l-17.88-7.44V-1604h21.6c.66 0 1.25-.4 1.5-1.04s0-1.36-.5-1.76zm-15.04-8.32l-8.23 7.44-9.9-7.52h18.13zm-41.15 8h-12.77l7.9-6 7.8 5.92zm-15.2 32.72l13.6-12.08v24.16zm12.76 15.6l-13.53 12.08v-24.16zm-13.53-19.2v-24.08l13.52 12.08zm13.7-37.2h19.98l-10 7.52zm22.67 2l7.9 6h-15.88zm-28.05-2l-10 7.6v-7.6zm-13.2 11.2h-3.2v-12.8h3.2v12.8zm5.63 60.8l13.6-12v12zm13.6-50.4l-11.84-10.4h11.83zm52.75 37.52h-38.4v-25.6h38.4zm-30.4-28.8l11.25-4.64 11.17 4.64zm16.37-22.4l6.47-5.84 7.22 5.92z" stroke="#fff" stroke-opacity="0" stroke-width="2" fill="#fff"/><path d="M-2122-1640c0 9.94-8.06 18-18 18s-18-8.06-18-18 8.06-18 18-18 18 8.06 18 18z" fill="#ef8d22"/><use xlink:href="#A" transform="matrix(1,0,0,1,-2170,-1511) translate(47.574999999999996 13.799999999999999)"/><path d="M-1746.6-898.73h120v120h-120v-120z" stroke="#fff" stroke-opacity="0" stroke-width="2" fill="#3b48cc"/><path d="M-1677.93-821.53l2.23-2.28-4.58-4.53 5.12-3.83-1.92-2.57-6.63 4.96c-.08.06-.13.1-.2.18-.6.64-.6 1.64.04 2.26zM-1660.12-826.97l-5.12 3.84 1.92 2.56 6.62-4.96c.4-.3.6-.7.65-1.18.03-.5-.14-.92-.5-1.26l-5.92-5.76-2.23 2.3z" stroke="#fff" stroke-opacity="0" stroke-width="2" fill="#fff"/><path d="M-1675.94-817.78l8.45-19.2 2.93 1.3-8.45 19.2-2.92-1.3z" stroke="#fff" stroke-opacity="0" stroke-width=".81" fill="#fff"/><path d="M-1645.18-865.53l-4.45-3.76-7.14-5.83-1.85-1.6c-.34-.32-.67-.4-1-.4h-59.4c0-.88-.66-1.6-1.6-1.6h-6.37c-.83 0-1.58.72-1.58 1.6v16c0 .88.75 1.6 1.6 1.6h6.37v59.2c0 .88.75 1.6 1.6 1.6h17.63c.84 0 1.6-.72 1.6-1.6v-62.4h28.8v11.76l-17.97 7.44h-1.26c-.93 0-1.6.72-1.6 1.6v28.8c0 .88.67 1.6 1.6 1.6h41.57c.93 0 1.6-.72 1.6-1.6v-28.8c0-.88-.67-1.6-1.6-1.6h-1.26l-17.88-7.44v-11.76h21.6c.66 0 1.25-.4 1.5-1.04s0-1.36-.5-1.76zm-15.04-8.32l-8.23 7.44-9.9-7.53h18.13zm-41.15 8h-12.77l7.9-6 7.8 5.92zm-15.2 32.72l13.6-12.08v24.15zm12.76 15.6l-13.53 12.08v-24.16zm-13.53-19.2v-24.08l13.52 12.07zm13.7-37.2h19.98l-10 7.52zm22.67 2l7.9 6h-15.88zm-28.05-2l-10 7.6v-7.6zm-13.2 11.2h-3.2v-12.8h3.2v12.8zm5.63 60.8l13.6-12v12zm13.6-50.4l-11.84-10.4h11.83zm52.75 37.52h-38.4v-25.6h38.4zm-30.4-28.8l11.25-4.65 11.17 4.64zm16.37-22.4l6.47-5.85 7.22 5.92z" stroke="#fff" stroke-opacity="0" stroke-width="2" fill="#fff"/><use xlink:href="#B" transform="matrix(1,0,0,1,-1776.6,-769.72960225523) translate(17.57499999999999 13.799999999999999)"/><path d="M-1746.6-1080.36h120v120h-120v-120z" stroke="#fff" stroke-opacity="0" stroke-width="2" fill="#3b48cc"/><path d="M-1677.93-1003.16l2.23-2.3-4.58-4.5 5.12-3.83-1.92-2.56-6.63 4.96c-.08.05-.13.1-.2.17-.6.63-.6 1.64.04 2.26zM-1660.12-1008.6l-5.12 3.83 1.92 2.57 6.62-4.96c.4-.3.6-.7.65-1.2.03-.47-.14-.9-.5-1.24l-5.92-5.76-2.23 2.3z" stroke="#fff" stroke-opacity="0" stroke-width="2" fill="#fff"/><path d="M-1675.94-999.4l8.45-19.2 2.93 1.28-8.45 19.2-2.92-1.3z" stroke="#fff" stroke-opacity="0" stroke-width=".81" fill="#fff"/><path d="M-1645.18-1047.16l-4.45-3.76-7.14-5.84-1.85-1.6c-.34-.32-.67-.4-1-.4h-59.4c0-.88-.66-1.6-1.6-1.6h-6.37c-.83 0-1.58.72-1.58 1.6v16c0 .88.75 1.6 1.6 1.6h6.37v59.2c0 .88.75 1.6 1.6 1.6h17.63c.84 0 1.6-.72 1.6-1.6v-62.4h28.8v11.76l-17.97 7.44h-1.26c-.93 0-1.6.72-1.6 1.6v28.8c0 .88.67 1.6 1.6 1.6h41.57c.93 0 1.6-.72 1.6-1.6v-28.8c0-.88-.67-1.6-1.6-1.6h-1.26l-17.88-7.44v-11.76h21.6c.66 0 1.25-.4 1.5-1.04s0-1.36-.5-1.76zm-15.04-8.32l-8.23 7.44-9.9-7.52h18.13zm-41.15 8h-12.77l7.9-6 7.8 5.92zm-15.2 32.72l13.6-12.08v24.16zm12.76 15.6l-13.53 12.08v-24.16zm-13.53-19.2v-24.08l13.52 12.08zm13.7-37.2h19.98l-10 7.52zm22.67 2l7.9 6h-15.88zm-28.05-2l-10 7.6v-7.6zm-13.2 11.2h-3.2v-12.8h3.2v12.8zm5.63 60.8l13.6-12v12zm13.6-50.4l-11.84-10.4h11.83zm52.75 37.52h-38.4v-25.6h38.4zm-30.4-28.8l11.25-4.64 11.17 4.64zm16.37-22.4l6.47-5.84 7.22 5.92z" stroke="#fff" stroke-opacity="0" stroke-width="2" fill="#fff"/><use xlink:href="#C" transform="matrix(1,0,0,1,-1776.6,-951.364801127615) translate(51.05 13.799999999999999)"/><path d="M-1746.6-717.1h120v120h-120v-120z" stroke="#fff" stroke-opacity="0" stroke-width="2" fill="#3b48cc"/><path d="M-1677.93-639.9l2.23-2.28-4.58-4.5 5.12-3.84-1.92-2.57-6.63 4.97c-.08.05-.13.1-.2.17-.6.63-.6 1.64.04 2.26zM-1660.12-645.34l-5.12 3.84 1.92 2.57 6.62-4.96c.4-.28.6-.7.65-1.18.03-.48-.14-.9-.5-1.25l-5.92-5.76-2.23 2.3z" stroke="#fff" stroke-opacity="0" stroke-width="2" fill="#fff"/><path d="M-1675.94-636.14l8.45-19.2 2.93 1.3-8.45 19.2-2.92-1.3z" stroke="#fff" stroke-opacity="0" stroke-width=".81" fill="#fff"/><path d="M-1645.18-683.9l-4.45-3.75-7.14-5.84-1.85-1.6c-.34-.3-.67-.4-1-.4h-59.4c0-.87-.66-1.6-1.6-1.6h-6.37c-.83 0-1.58.73-1.58 1.6v16c0 .9.75 1.6 1.6 1.6h6.37v59.2c0 .9.75 1.6 1.6 1.6h17.63c.84 0 1.6-.7 1.6-1.6v-62.4h28.8v11.77l-17.97 7.44h-1.26c-.93 0-1.6.73-1.6 1.6v28.8c0 .9.67 1.6 1.6 1.6h41.57c.93 0 1.6-.7 1.6-1.6v-28.8c0-.87-.67-1.6-1.6-1.6h-1.26l-17.88-7.43v-11.76h21.6c.66 0 1.25-.4 1.5-1.03.25-.64 0-1.36-.5-1.76zm-15.04-8.3l-8.23 7.43-9.9-7.52h18.13zm-41.15 8h-12.77l7.9-6 7.8 5.9zm-15.2 32.7l13.6-12.07v24.16zm12.76 15.6l-13.53 12.1v-24.17zm-13.53-19.2v-24.07l13.52 12.08zm13.7-37.2h19.98l-10 7.53zm22.67 2l7.9 6h-15.88zm-28.05-2l-10 7.6v-7.6zm-13.2 11.2h-3.2v-12.8h3.2v12.8zm5.63 60.8l13.6-12v12zm13.6-50.4l-11.84-10.4h11.83zm52.75 37.53h-38.4v-25.6h38.4zm-30.4-28.8l11.25-4.64 11.17 4.63zm16.37-22.4l6.47-5.84 7.22 5.9z" stroke="#fff" stroke-opacity="0" stroke-width="2" fill="#fff"/><use xlink:href="#D" transform="matrix(1,0,0,1,-1776.6,-588.094403382845) translate(7.125 13.799999999999999)"/><path d="M-1746.6-1262h120v120h-120v-120z" stroke="#fff" stroke-opacity="0" stroke-width="2" fill="#3b48cc"/><path d="M-1655.4-1242h-62.4-.08c-4.88 0-8.72 4-8.72 8.8v17.68c0 4.88 4 8.72 8.8 8.72h2.4v43.2c0 .88.72 1.6 1.6 1.6h54.4c.88 0 1.6-.72 1.6-1.6v-43.2h2.48c4.88 0 8.72-4 8.72-8.8v-17.6-.08c0-4.88-4-8.72-8.8-8.72zm-5.68 76.8h-51.2v-41.6h51.2zm5.68-44.8h-62.4c-2.8 0-5.12-2-5.44-4.8h27.2v-3.2h-27.2v-15.2c-.08-3.04 2.4-5.52 5.44-5.6h62.4c3.04 0 5.6 2.4 5.6 5.44v15.36h-30.4v3.2h30.4c-.4 2.8-2.8 4.88-5.6 4.8z" stroke="#fff" stroke-opacity="0" stroke-width="2" fill="#fff"/><path d="M-1706.47-1186.23l9.15 7.88 2.1-2.4-7.78-6.72 7.82-6.9-2.12-2.4-9.2 8.12c-.34.32-.53.74-.53 1.22s.2.88.56 1.2zM-1675.8-1178.3l9.2-7.98c.38-.33.56-.74.56-1.22 0-.47-.2-.88-.55-1.2l-9.2-8-2.1 2.4 7.83 6.8-7.83 6.85z" stroke="#fff" stroke-opacity="0" stroke-width="2" fill="#fff"/><path d="M-1692.82-1173.9l11-26.86 2.96 1.2-11 26.85-2.96-1.2z" stroke="#fff" stroke-opacity="0" stroke-width=".76" fill="#fff"/><path d="M-1691.4-1218h6.4v3.2h-6.4v-3.2z" stroke="#fff" stroke-opacity="0" stroke-width="2" fill="#fff"/><use xlink:href="#E" transform="matrix(1,0,0,1,-1776.6,-1133) translate(35.599999999999994 13.799999999999999)"/><path d="M-1433.2-1262h120v120h-120v-120z" stroke="#fff" stroke-opacity="0" fill="#693cc5"/><path d="M-1359.38-1164.93l-2.85-1.5c1.6-3.02 2.7-5.73 3.64-9.04l3.1.9c-1.03 3.54-2.17 6.4-3.88 9.64zm2.98-29.3c-.57-9.4-3.23-17.23-8.43-25.06l2.66-1.72c5.55 8.28 8.37 16.64 8.97 26.58zm-21.1-38.6c-2.45-1.82-4.67-3.18-7.4-4.53l1.46-2.86c2.92 1.43 5.26 2.86 7.86 4.8zM-1364.4-1190.16c-5.3-5.27-10.82-8.73-17.87-11.2l1-3.04c7.5 2.63 13.38 6.3 19.03 11.92zM-1351.2-1171.06c-.6-1.6-1.28-3.07-2.02-4.56l2.87-1.42c.83 1.65 1.46 3.08 2.13 4.8z" stroke="#fff" stroke-opacity="0" fill="#fff"/><path d="M-1360.3-1164.16l-1-3.02c4.02-1.37 7.24-3.1 10.6-5.72l1.96 2.53c-3.66 2.85-7.15 4.73-11.55 6.2zM-1411.16-1202.8l-.73-3.1c3.75-.92 7-1.35 10.85-1.43l.07 3.2c-3.6.08-6.66.47-10.18 1.33zM-1384.9-1212.98l-2.7-1.75c2.47-4 5.06-7.1 8.6-10.23l2.1 2.42c-3.3 2.92-5.7 5.8-8 9.56zM-1361.12-1231.95l-1.1-3c2.55-.96 4.76-1.6 7.42-2.12l.6 3.2c-2.5.47-4.55 1.04-6.92 1.92zM-1392.8-1167.6c-2.75-6.38-4-12.25-4.1-19.2.04-2.67.34-4.95.98-7.54.1-.57.24-1.14.35-1.74l3.2.63c-.1.6-.24 1.16-.35 1.76-.6 2.38-.87 4.46-.92 6.9.07 6.53 1.23 12.05 3.8 18.06z" stroke="#fff" stroke-opacity="0" fill="#fff"/><path d="M-1373.2-1162c-22.08 0-40-17.94-40-39.97 0-.88 0-1.6.08-2.5 1.04-17.05 12.08-31 28.48-35.87 10.8-3.2 21.2-2.1 30.96 3.44 19.28 10.82 26.16 35.17 15.36 54.47-2.72 4.9-5.92 8.65-10.4 12.1-7.36 5.6-15.2 8.33-24.48 8.33zm0-76.82c-3.76 0-6.96.48-10.48 1.6-15.12 4.57-25.28 17.3-26.24 33 0 .8-.08 1.53-.08 2.25 0 20.26 16.48 36.77 36.8 36.77 4.24 0 7.84-.56 11.84-2 4.08-1.37 7.28-3.05 10.64-5.7 9.36-7.2 14.32-17.3 14.32-29.07 0-20.35-16.48-36.85-36.8-36.85z" stroke="#fff" stroke-opacity="0" fill="#fff"/><path d="M-1369.3-1220.5c-3.92 0-7.1-3.2-7.1-7.1 0-3.9 3.18-7.1 7.1-7.1 3.9 0 7.08 3.2 7.08 7.1 0 3.93-3.17 7.1-7.08 7.1zm0-10.97c-2.15 0-3.9 1.74-3.9 3.88 0 2.17 1.75 3.9 3.9 3.9 2.13 0 3.87-1.73 3.87-3.9 0-2.13-1.74-3.87-3.88-3.87zM-1391.14-1198.2c-3.9 0-7.08-3.17-7.08-7.08 0-3.9 3.17-7.1 7.08-7.1 3.92 0 7.1 3.2 7.1 7.1-.02 3.9-3.18 7.07-7.1 7.1zm0-10.96c-2.14 0-3.88 1.74-3.88 3.88 0 2.14 1.74 3.88 3.88 3.88 2.14 0 3.9-1.74 3.9-3.88v-.03c0-2.16-1.76-3.9-3.9-3.9zM-1355.95-1177.68c-3.92 0-7.1-3.16-7.1-7.07-.02-3.92 3.16-7.1 7.07-7.1 3.9-.02 7.1 3.16 7.1 7.07v.03c0 3.9-3.16 7.07-7.07 7.07zm0-10.96h-.02c-2.14 0-3.88 1.75-3.88 3.9 0 2.14 1.74 3.87 3.88 3.87 2.14 0 3.9-1.73 3.9-3.88 0-2.14-1.74-3.9-3.88-3.9z" stroke="#fff" stroke-opacity="0" fill="#fff"/><use xlink:href="#F" transform="matrix(1,0,0,1,-1463.1999999999998,-1133) translate(15.125 13.799999999999999)"/><path d="M-1981.65-1880c-33.12 0-60 26.88-60 60 0 33.24 26.88 60 60 60 33.24 0 60-26.88 60-60 0-33.24-26.76-60-60-60zm15.84 112.08V-1778c0-4.08-2.3-7.56-5.4-9.84h.6c5.75-.6 10.67-2.4 10.67-2.4s7.32-2.28 11.4-6.96c4.2-5.16 5.4-12.36 5.4-12.36s1.2-7.92 0-14.28c-1.2-5.88-6-10.32-6-10.32s1.56-4.2 1.32-8.28c0-4.08-1.93-8.16-1.93-8.16s-3.48-.36-7.32 1.2c-4.44 1.92-9.48 5.4-9.48 5.4s-3.48-1.2-7.56-1.56c-3.7-.72-8.15-.72-8.15-.72s-4.44 0-8.28.72c-4.08.6-7.56 1.56-7.56 1.56s-5.03-3.48-9.47-5.4c-3.72-1.56-7.2-1.2-7.2-1.2s-1.92 4.08-1.92 8.16c0 4.2 1.2 8.28 1.2 8.28s-4.3 4.08-5.87 10.32c-1.68 6.36 0 14.28 0 14.28s.84 7.2 5.28 12.36c4.2 4.68 11.4 6.96 11.4 6.96s5.05 1.8 10.7 2.4h.95c-2.16 2.28-4.44 5.76-4.44 9.84v10.08c-22.3-6.6-38.5-27.48-38.5-52.08 0-30 24.35-54.24 54.35-54.24s54.72 24.24 54.72 54.24c0 24.6-16.44 45.48-38.88 52.08z" stroke="#000" stroke-opacity="0" fill="#0078d7"/><use xlink:href="#G" transform="matrix(1,0,0,1,-2071.65,-1751) translate(62.05 13.799999999999999)"/><path d="M-2078.5-1660.62h-3v-27.25h3zm35.35-157.76h-24.75l-2.82.37-2.5 1.03-2.2 1.67-1.67 2.2-1.03 2.5-.37 2.82v98.3h-3v-98.5l.45-3.4 1.34-3.25 2.14-2.8 2.8-2.16 3.25-1.33 3.4-.45h24.95z" fill="#ef8d22"/><path d="M-2041.65-1820l.07 1.62h-1.6v-3h1.58zM-2080-1644.85l-4.64-14.27h9.28z" fill="#ef8d22"/><path d="M-2080-1640l-6.7-20.62h13.4zm-2.57-17.62l2.57 7.9 2.57-7.9z" fill="#ef8d22"/><use xlink:href="#H" transform="matrix(1,0,0,1,-2117.8,-1709.4666666666667) translate(0.005000000000002558 14.4)"/><path d="M-2018.5-1580h6.5c6.63 0 12 5.37 12 12v128.88" stroke="#ef8d22" stroke-width="3" fill="none"/><path d="M-2018.46-1578.5h-1.54v-3h1.54z" fill="#ef8d22"/><path d="M-2000-1423.35l-4.64-14.27h9.28z" stroke="#ef8d22" stroke-width="3" fill="#ef8d22"/><use xlink:href="#q" transform="matrix(1,0,0,1,-1992,-1480.6751344943398) translate(0.005 14.4)"/><path d="M-1686.6-1282.62v-52.47c0-6.62-5.37-12-12-12h-256.2" stroke="#ef8d22" stroke-width="3" fill="none"/><path d="M-1686.6-1266.85l-4.64-14.27h9.28z" stroke="#ef8d22" stroke-width="3" fill="#ef8d22"/><path d="M-1954.75-1345.6h-3.02l1.44-1.35.52-1.64h1.05z" fill="#ef8d22"/><use xlink:href="#I" transform="matrix(1,0,0,1,-1933.4084350743476,-1372.6904437870419) translate(0.0049999999999954525 14.4)"/><use xlink:href="#J" transform="matrix(1,0,0,1,-1933.4084350743476,-1372.6904437870419) translate(74.905 14.4)"/><use xlink:href="#K" transform="matrix(1,0,0,1,-1933.4084350743476,-1372.6904437870419) translate(139.755 14.4)"/><path d="M-1748.1-1202h-26.5c-6.63 0-12 5.37-12 12v97.64c0 6.62 5.37 12 12 12h8.36" stroke="#ef8d22" stroke-width="3" fill="none"/><path d="M-1746.6-1200.5h-1.54v-3h1.54z" fill="#ef8d22"/><path d="M-1750.47-1080.36l-14.27 4.63v-9.27z" stroke="#ef8d22" stroke-width="3" fill="#ef8d22"/><path d="M-1748.1-1020.36h-26.5c-6.63 0-12 5.37-12 12v102.96c0 6.63 5.37 12 12 12h7.38" stroke="#ef8d22" stroke-width="3" fill="none"/><path d="M-1746.6-1018.86h-1.54v-3h1.54z" fill="#ef8d22"/><path d="M-1751.45-893.4l-14.27 4.64v-9.27z" stroke="#ef8d22" stroke-width="3" fill="#ef8d22"/><path d="M-1748.1-837.36h-26.5c-6.63 0-12 5.37-12 12v96.27c0 6.63 5.37 12 12 12h7.65" stroke="#ef8d22" stroke-width="3" fill="none"/><path d="M-1746.6-835.86h-1.54v-3h1.54z" fill="#ef8d22"/><path d="M-1751.18-717.1l-14.27 4.64v-9.27z" stroke="#ef8d22" stroke-width="3" fill="#ef8d22"/><path d="M-1608.2-1349.57h-12.62c-.93 0-1.7-.76-1.7-1.7v-12.77c0-.94.77-1.7 1.7-1.7h12.62c.93 0 1.7.76 1.7 1.7v12.77c0 .94-.77 1.7-1.7 1.7zm-10.9-3.4h9.2v-9.36h-9.2zM-1591.47-1355.88c-4.92.02-8.93-3.96-8.95-8.9-.02-4.9 3.96-8.92 8.88-8.94 4.93-.02 8.94 3.96 8.96 8.88v.04c.02 4.92-3.96 8.9-8.9 8.92zm0-14.43h-.03c-3.05 0-5.5 2.45-5.5 5.5s2.45 5.5 5.5 5.5 5.5-2.45 5.5-5.5c.03-3.03-2.43-5.5-5.47-5.5zM-1609.82-1371.92h-15.94c-.64 0-1.18-.3-1.5-.86-.3-.54-.3-1.16 0-1.7l8-13.32c.48-.8 1.53-1.05 2.34-.57.23.15.42.32.56.57l8 13.3c.3.56.3 1.18 0 1.72-.32.53-.84.85-1.46.86zm-12.94-3.4h9.94l-4.97-8.3z" stroke="#fff" stroke-opacity="0" fill="#3f8624"/><path d="M-1603.96-1340c-10.83 0-28.1-2.46-28.3-9.1l-7.74-57.2c-.14-.97.43-1.86 1.37-2.06.94-.14 1.88.47 2.1 1.43.8 3.28 13.65 7.86 32.64 7.86 19 0 31.87-4.58 32.66-7.86.22-.96 1.16-1.57 2.1-1.43.94.2 1.5 1.1 1.37 2.05l-7.87 57.2c0 2.26-2.1 4.18-6 5.75-1.8.68-3.4 1.16-5.27 1.57-5.93 1.3-11 1.78-17.06 1.78zm-31.92-61.66l6.93 52.3v.2c0 2.05 9.75 5.8 24.92 5.8 5.78.08 10.62-.47 16.25-1.63 1.73-.4 3.18-.88 4.84-1.56 3.1-1.23 3.83-2.33 3.83-2.67v-.14l7.07-52.23c-6.58 3.9-19.87 6.02-32 6.02-12.13 0-25.28-2.2-31.85-6.08z" stroke="#fff" stroke-opacity="0" fill="#3f8624"/><path d="M-1603.96-1395.68c-16.08 0-34.18-3.65-35.98-10.4V-1407.02v-.23c0-7.52 19.04-12.77 36.12-12.77 17.1 0 35.98 5.25 35.98 12.77v.22l-.07.7v.2c-1.8 6.77-19.9 10.42-36.06 10.42zm-32.66-11.2c1.08 3.3 13.84 7.8 32.66 7.8 18.82 0 31.58-4.5 32.66-7.8v-.45c-.14-3.3-13.63-9.26-32.66-9.26-19.04 0-32.45 5.96-32.74 9.27zM-1567.77-1372.14c-8.07 0-25.83-8-36.92-13.46l1.5-3.06c15.3 7.5 33.36 14.5 36.46 13.18-.24-.48-1.4-2.02-6.83-4.97l-.24-.17 1.68-2.96.25.17c5.47 2.98 8.07 5.3 8.53 7.5.16.93-.08 1.83-.7 2.57-1.04.95-2.32 1.36-3.73 1.2z" stroke="#fff" stroke-opacity="0" fill="#3f8624"/><path d="M-1603.95-1383.4c-2.03 0-3.7-1.66-3.7-3.7s1.67-3.7 3.7-3.7c2.04 0 3.7 1.66 3.7 3.7s-1.66 3.7-3.7 3.7zm0-4c-.17 0-.3.14-.3.3 0 .33.6.33.6 0v-.04c0-.16-.13-.28-.3-.28z" stroke="#fff" stroke-opacity="0" fill="#3f8624"/><use xlink:href="#L" transform="matrix(1,0,0,1,-1670,-1331) translate(36.225 13.799999999999999)"/><path d="M-1434.7-1202h-53.3c-6.63 0-12-5.37-12-12v-175.5c0-6.64-5.37-12-12-12h-35.8" stroke="#000" stroke-width="3" fill="none"/><path d="M-1433.2-1200.5h-1.54v-3h1.54z"/><path d="M-1563.58-1401.5l14.27-4.64v9.27z" stroke="#000" stroke-width="3"/><path d="M-1625.1-838.73h76.8c6.6 0 12-5.37 12-12V-1335c0-6.63-5.4-12-12-12h-7.4" stroke="#ef8d22" stroke-width="3" fill="none"/><path d="M-1625.06-837.23h-1.54v-3h1.54z" fill="#ef8d22"/><path d="M-1571.46-1347l14.27-4.64v9.27z" stroke="#ef8d22" stroke-width="3" fill="#ef8d22"/><path d="M-1625.1-657.1h76.8c6.6 0 12-5.37 12-12V-1335c0-6.63-5.4-12-12-12h-7.4" stroke="#ef8d22" stroke-width="3" fill="none"/><path d="M-1625.06-655.6h-1.54v-3h1.54z" fill="#ef8d22"/><path d="M-1571.46-1347l14.27-4.64v9.27z" stroke="#ef8d22" stroke-width="3" fill="#ef8d22"/><path d="M-1746.6-1640h120v120h-120v-120z" stroke="#fff" stroke-opacity="0" stroke-width="2" fill="#3b48cc"/><path d="M-1677.93-1562.8l2.23-2.28-4.58-4.52 5.12-3.83-1.92-2.57-6.63 4.96-.2.17c-.6.64-.6 1.64.04 2.26zM-1660.12-1568.25l-5.12 3.85 1.92 2.56 6.62-4.96c.4-.3.6-.7.65-1.18.03-.5-.14-.9-.5-1.25l-5.92-5.76-2.23 2.3z" stroke="#fff" stroke-opacity="0" stroke-width="2" fill="#fff"/><path d="M-1675.94-1559.05l8.45-19.2 2.93 1.3-8.45 19.2-2.92-1.3z" stroke="#fff" stroke-opacity="0" stroke-width=".81" fill="#fff"/><path d="M-1645.18-1606.8l-4.45-3.76-7.14-5.84-1.85-1.6c-.34-.32-.67-.4-1-.4h-59.4c0-.88-.66-1.6-1.6-1.6h-6.37c-.83 0-1.58.72-1.58 1.6v16c0 .88.75 1.6 1.6 1.6h6.37v59.2c0 .88.75 1.6 1.6 1.6h17.63c.84 0 1.6-.72 1.6-1.6v-62.4h28.8v11.76l-17.97 7.44h-1.26c-.93 0-1.6.72-1.6 1.6v28.8c0 .88.67 1.6 1.6 1.6h41.57c.93 0 1.6-.72 1.6-1.6v-28.8c0-.88-.67-1.6-1.6-1.6h-1.26l-17.88-7.44V-1604h21.6c.66 0 1.25-.4 1.5-1.04s0-1.36-.5-1.76zm-15.04-8.32l-8.23 7.44-9.9-7.52h18.13zm-41.15 8h-12.77l7.9-6 7.8 5.92zm-15.2 32.72l13.6-12.08v24.16zm12.76 15.6l-13.53 12.08v-24.16zm-13.53-19.2v-24.08l13.52 12.08zm13.7-37.2h19.98l-10 7.52zm22.67 2l7.9 6h-15.88zm-28.05-2l-10 7.6v-7.6zm-13.2 11.2h-3.2v-12.8h3.2v12.8zm5.63 60.8l13.6-12v12zm13.6-50.4l-11.84-10.4h11.83zm52.75 37.52h-38.4v-25.6h38.4zm-30.4-28.8l11.25-4.64 11.17 4.64zm16.37-22.4l6.47-5.84 7.22 5.92z" stroke="#fff" stroke-opacity="0" stroke-width="2" fill="#fff"/><path d="M-1728.6-1640c0 9.94-8.06 18-18 18s-18-8.06-18-18 8.06-18 18-18 18 8.06 18 18z" fill="#3f8624"/><use xlink:href="#M" transform="matrix(1,0,0,1,-1776.6,-1511) translate(44.525 13.799999999999999)"/><path d="M-1685.1-1660.62h-3v-23.25h3zm-10-158.1l3.25 1.34 2.8 2.15 2.16 2.8 1.35 3.25.45 3.4v100.3h-3v-100.1l-.37-2.82-1.04-2.5-1.68-2.2-2.2-1.66-2.5-1.04-2.82-.37h-41.3v-3h41.5z" fill="#3f8624"/><path d="M-1739.95-1816.17h-1.2l-.3-1.44-.56-1.57h2.05zM-1686.6-1644.85l-4.64-14.27h9.28z" fill="#3f8624"/><path d="M-1686.6-1640l-6.7-20.62h13.4zm-2.57-17.62l2.57 7.9 2.57-7.9z" fill="#3f8624"/><use xlink:href="#z" transform="matrix(1,0,0,1,-1726,-1705.4666666666667) translate(0.005000000000002558 14.4)"/><path d="M-1625.1-1580h11.45c6.63 0 12 5.37 12 12v127.53" stroke="#3f8624" stroke-width="3" fill="none"/><path d="M-1625.06-1578.5h-1.54v-3h1.54z" fill="#3f8624"/><path d="M-1601.65-1424.7l-4.64-14.27h9.3z" stroke="#3f8624" stroke-width="3" fill="#3f8624"/><path d="M-1433.2-1440h120v120h-120v-120z" stroke="#fff" stroke-opacity="0" fill="#693cc5"/><path d="M-1359.38-1342.93l-2.85-1.5c1.6-3.02 2.7-5.73 3.64-9.04l3.1.9c-1.03 3.54-2.17 6.4-3.88 9.64zm2.98-29.3c-.57-9.4-3.23-17.23-8.43-25.06l2.66-1.72c5.55 8.28 8.37 16.64 8.97 26.58zm-21.1-38.6c-2.45-1.82-4.67-3.18-7.4-4.53l1.46-2.86c2.92 1.43 5.26 2.86 7.86 4.8zM-1364.4-1368.16c-5.3-5.27-10.82-8.73-17.87-11.2l1-3.04c7.5 2.63 13.38 6.3 19.03 11.92zM-1351.2-1349.06c-.6-1.6-1.28-3.07-2.02-4.56l2.87-1.42c.83 1.65 1.46 3.08 2.13 4.8z" stroke="#fff" stroke-opacity="0" fill="#fff"/><path d="M-1360.3-1342.16l-1-3.02c4.02-1.37 7.24-3.1 10.6-5.72l1.96 2.53c-3.66 2.85-7.15 4.73-11.55 6.2zM-1411.16-1380.8l-.73-3.1c3.75-.92 7-1.35 10.85-1.43l.07 3.2c-3.6.08-6.66.47-10.18 1.33zM-1384.9-1390.98l-2.7-1.75c2.47-4 5.06-7.1 8.6-10.23l2.1 2.42c-3.3 2.92-5.7 5.8-8 9.56zM-1361.12-1409.95l-1.1-3c2.55-.96 4.76-1.6 7.42-2.12l.6 3.2c-2.5.47-4.55 1.04-6.92 1.92zM-1392.8-1345.6c-2.75-6.38-4-12.25-4.1-19.2.04-2.67.34-4.95.98-7.54.1-.57.24-1.14.35-1.74l3.2.63c-.1.6-.24 1.16-.35 1.76-.6 2.38-.87 4.46-.92 6.9.07 6.53 1.23 12.05 3.8 18.06z" stroke="#fff" stroke-opacity="0" fill="#fff"/><path d="M-1373.2-1340c-22.08 0-40-17.94-40-39.97 0-.88 0-1.6.08-2.5 1.04-17.05 12.08-31 28.48-35.87 10.8-3.2 21.2-2.1 30.96 3.44 19.28 10.82 26.16 35.17 15.36 54.47-2.72 4.9-5.92 8.65-10.4 12.1-7.36 5.6-15.2 8.33-24.48 8.33zm0-76.82c-3.76 0-6.96.48-10.48 1.6-15.12 4.57-25.28 17.3-26.24 33 0 .8-.08 1.53-.08 2.25 0 20.26 16.48 36.77 36.8 36.77 4.24 0 7.84-.56 11.84-2 4.08-1.37 7.28-3.05 10.64-5.7 9.36-7.2 14.32-17.3 14.32-29.07 0-20.35-16.48-36.85-36.8-36.85z" stroke="#fff" stroke-opacity="0" fill="#fff"/><path d="M-1369.3-1398.5c-3.92 0-7.1-3.2-7.1-7.1 0-3.9 3.18-7.1 7.1-7.1 3.9 0 7.08 3.2 7.08 7.1 0 3.93-3.17 7.1-7.08 7.1zm0-10.97c-2.15 0-3.9 1.74-3.9 3.88 0 2.17 1.75 3.9 3.9 3.9 2.13 0 3.87-1.73 3.87-3.9 0-2.13-1.74-3.87-3.88-3.87zM-1391.14-1376.2c-3.9 0-7.08-3.17-7.08-7.08 0-3.9 3.17-7.1 7.08-7.1 3.92 0 7.1 3.2 7.1 7.1-.02 3.9-3.18 7.07-7.1 7.1zm0-10.96c-2.14 0-3.88 1.74-3.88 3.88 0 2.14 1.74 3.88 3.88 3.88 2.14 0 3.9-1.74 3.9-3.88v-.03c0-2.16-1.76-3.9-3.9-3.9zM-1355.95-1355.68c-3.92 0-7.1-3.16-7.1-7.07-.02-3.92 3.16-7.1 7.07-7.1 3.9-.02 7.1 3.16 7.1 7.07v.03c0 3.9-3.16 7.07-7.07 7.07zm0-10.96h-.02c-2.14 0-3.88 1.75-3.88 3.9 0 2.14 1.74 3.87 3.88 3.87 2.14 0 3.9-1.73 3.9-3.88 0-2.14-1.74-3.9-3.88-3.9z" stroke="#fff" stroke-opacity="0" fill="#fff"/><use xlink:href="#N" transform="matrix(1,0,0,1,-1463.1999999999998,-1311) translate(2.6500000000000057 13.799999999999999)"/><path d="M-1434.7-1380h-55.36c-5.94 0-10.76-4.8-10.76-10.75 0-5.94-4.8-10.76-10.75-10.76h-36.24" stroke="#000" stroke-width="3" fill="none"/><path d="M-1433.2-1378.5h-1.54v-3h1.54z"/><path d="M-1563.58-1401.5l14.27-4.64v9.27z" stroke="#000" stroke-width="3"/><path d="M-1625.1-1020.36h83.8c0-2.77 2.22-5 5-5 2.75 0 5 2.23 5 5h246.1c6.63 0 12-5.38 12-12V-1190c0-6.63-5.37-12-12-12h-7.38" stroke="#ef8d22" stroke-width="3" fill="none"/><path d="M-1625.06-1018.86h-1.54v-3h1.54z" fill="#ef8d22"/><path d="M-1308.35-1202l14.27-4.64v9.28z" stroke="#ef8d22" stroke-width="3" fill="#ef8d22"/><g><use xlink:href="#O" transform="matrix(1,0,0,1,-1435.425,-1045.9648011276151) translate(0.005000000000002558 14.4)"/><use xlink:href="#P" transform="matrix(1,0,0,1,-1435.425,-1045.9648011276151) translate(88.85500000000002 14.4)"/></g><path d="M-1560-1632c0-4.42 3.58-8 8-8h230.8c4.42 0 8 3.58 8 8v44c0 4.42-3.58 8-8 8H-1552c-4.42 0-8-3.58-8-8z" stroke="#a3d977" fill="#c7e8ac"/><path d="M-1542-1640c0 9.94-8.06 18-18 18s-18-8.06-18-18 8.06-18 18-18 18 8.06 18 18z" fill="#3f8624"/><g><use xlink:href="#Q" transform="matrix(1,0,0,1,-1555,-1635) translate(32.075 17.525)"/><use xlink:href="#R" transform="matrix(1,0,0,1,-1555,-1635) translate(104.025 17.525)"/><use xlink:href="#S" transform="matrix(1,0,0,1,-1555,-1635) translate(124.025 17.525)"/><use xlink:href="#T" transform="matrix(1,0,0,1,-1555,-1635) translate(181.97500000000002 17.525)"/><use xlink:href="#U" transform="matrix(1,0,0,1,-1555,-1635) translate(66.075 39.125)"/><use xlink:href="#V" transform="matrix(1,0,0,1,-1555,-1635) translate(139.025 39.125)"/></g><path d="M-2300-1806.8c0-4.42 3.58-8 8-8h191.3c4.42 0 8 3.58 8 8v58.8c0 4.42-3.58 8-8 8H-2292c-4.42 0-8-3.58-8-8z" stroke="#ffdf71" fill="#ffeca9"/><path d="M-2282-1814.8c0 9.94-8.06 18-18 18s-18-8.06-18-18 8.06-18 18-18 18 8.06 18 18z" fill="#ef8d22"/><g><use xlink:href="#W" transform="matrix(1,0,0,1,-2295,-1809.8) translate(13.574999999999989 14.4)"/><use xlink:href="#X" transform="matrix(1,0,0,1,-2295,-1809.8) translate(91.52499999999999 14.4)"/><use xlink:href="#Y" transform="matrix(1,0,0,1,-2295,-1809.8) translate(36.05 36)"/><use xlink:href="#Z" transform="matrix(1,0,0,1,-2295,-1809.8) translate(64 36)"/><use xlink:href="#R" transform="matrix(1,0,0,1,-2295,-1809.8) translate(131.95 36)"/><use xlink:href="#aa" transform="matrix(1,0,0,1,-2295,-1809.8) translate(151.95 36)"/><use xlink:href="#ab" transform="matrix(1,0,0,1,-2295,-1809.8) translate(39.575 57.6)"/><use xlink:href="#ac" transform="matrix(1,0,0,1,-2295,-1809.8) translate(103.475 57.6)"/></g><path d="M-2300-1472c0-4.42 3.58-8 8-8h191.3c4.42 0 8 3.58 8 8v58.8c0 4.42-3.58 8-8 8H-2292c-4.42 0-8-3.58-8-8z" stroke="#d1bcd2" fill="#d1bcd2"/><path d="M-2282-1480c0 9.94-8.06 18-18 18s-18-8.06-18-18 8.06-18 18-18 18 8.06 18 18z" fill="#693cc5"/><g><use xlink:href="#ad" transform="matrix(1,0,0,1,-2295,-1475) translate(24.549999999999997 24.55625)"/><use xlink:href="#ae" transform="matrix(1,0,0,1,-2295,-1475) translate(83.45 24.55625)"/><use xlink:href="#af" transform="matrix(1,0,0,1,-2295,-1475) translate(118.45 24.55625)"/><use xlink:href="#ag" transform="matrix(1,0,0,1,-2295,-1475) translate(31.599999999999994 46.15625)"/><use xlink:href="#ah" transform="matrix(1,0,0,1,-2295,-1475) translate(61.599999999999994 46.15625)"/></g><defs><path fill="#333" d="M160-131c35 5 61 23 61 61C221 17 115-2 30 0v-248c76 3 177-17 177 60 0 33-19 50-47 57zm-97-11c50-1 110 9 110-42 0-47-63-36-110-37v79zm0 115c55-2 124 14 124-45 0-56-70-42-124-44v89" id="ai"/><path fill="#333" d="M84 4C-5 8 30-112 23-190h32v120c0 31 7 50 39 49 72-2 45-101 50-169h31l1 190h-30c-1-10 1-25-2-33-11 22-28 36-60 37" id="aj"/><path fill="#333" d="M24-231v-30h32v30H24zM24 0v-190h32V0H24" id="ak"/><path fill="#333" d="M24 0v-261h32V0H24" id="al"/><path fill="#333" d="M85-194c31 0 48 13 60 33l-1-100h32l1 261h-30c-2-10 0-23-3-31C134-8 116 4 85 4 32 4 16-35 15-94c0-66 23-100 70-100zm9 24c-40 0-46 34-46 75 0 40 6 74 45 74 42 0 51-32 51-76 0-42-9-74-50-73" id="am"/><path fill="#333" d="M212-179c-10-28-35-45-73-45-59 0-87 40-87 99 0 60 29 101 89 101 43 0 62-24 78-52l27 14C228-24 195 4 139 4 59 4 22-46 18-125c-6-104 99-153 187-111 19 9 31 26 39 46" id="an"/><path fill="#333" d="M106-169C34-169 62-67 57 0H25v-261h32l-1 103c12-21 28-36 61-36 89 0 53 116 60 194h-32v-121c2-32-8-49-39-48" id="ao"/><path fill="#333" d="M141-36C126-15 110 5 73 4 37 3 15-17 15-53c-1-64 63-63 125-63 3-35-9-54-41-54-24 1-41 7-42 31l-33-3c5-37 33-52 76-52 45 0 72 20 72 64v82c-1 20 7 32 28 27v20c-31 9-61-2-59-35zM48-53c0 20 12 33 32 33 41-3 63-29 60-74-43 2-92-5-92 41" id="ap"/><path fill="#333" d="M117-194c89-4 53 116 60 194h-32v-121c0-31-8-49-39-48C34-167 62-67 57 0H25l-1-190h30c1 10-1 24 2 32 11-22 29-35 61-36" id="aq"/><path fill="#333" d="M177-190C167-65 218 103 67 71c-23-6-38-20-44-43l32-5c15 47 100 32 89-28v-30C133-14 115 1 83 1 29 1 15-40 15-95c0-56 16-97 71-98 29-1 48 16 59 35 1-10 0-23 2-32h30zM94-22c36 0 50-32 50-73 0-42-14-75-50-75-39 0-46 34-46 75s6 73 46 73" id="ar"/><path fill="#333" d="M100-194c63 0 86 42 84 106H49c0 40 14 67 53 68 26 1 43-12 49-29l28 8c-11 28-37 45-77 45C44 4 14-33 15-96c1-61 26-98 85-98zm52 81c6-60-76-77-97-28-3 7-6 17-6 28h103" id="as"/><path fill="#333" d="M185-189c-5-48-123-54-124 2 14 75 158 14 163 119 3 78-121 87-175 55-17-10-28-26-33-46l33-7c5 56 141 63 141-1 0-78-155-14-162-118-5-82 145-84 179-34 5 7 8 16 11 25" id="at"/><path fill="#333" d="M59-47c-2 24 18 29 38 22v24C64 9 27 4 27-40v-127H5v-23h24l9-43h21v43h35v23H59v120" id="au"/><g id="a"><use transform="matrix(0.05,0,0,0.05,0,0)" xlink:href="#ai"/><use transform="matrix(0.05,0,0,0.05,12,0)" xlink:href="#aj"/><use transform="matrix(0.05,0,0,0.05,22,0)" xlink:href="#ak"/><use transform="matrix(0.05,0,0,0.05,25.950000000000003,0)" xlink:href="#al"/><use transform="matrix(0.05,0,0,0.05,29.899999999999995,0)" xlink:href="#am"/><use transform="matrix(0.05,0,0,0.05,39.9,0)" xlink:href="#an"/><use transform="matrix(0.05,0,0,0.05,52.85,0)" xlink:href="#ao"/><use transform="matrix(0.05,0,0,0.05,62.85,0)" xlink:href="#ap"/><use transform="matrix(0.05,0,0,0.05,72.85,0)" xlink:href="#aq"/><use transform="matrix(0.05,0,0,0.05,82.85,0)" xlink:href="#ar"/><use transform="matrix(0.05,0,0,0.05,92.85,0)" xlink:href="#as"/><use transform="matrix(0.05,0,0,0.05,102.84999999999998,0)" xlink:href="#at"/><use transform="matrix(0.05,0,0,0.05,114.84999999999998,0)" xlink:href="#as"/><use transform="matrix(0.05,0,0,0.05,124.84999999999998,0)" xlink:href="#au"/></g><path fill="#333" d="M96-169c-40 0-48 33-48 73s9 75 48 75c24 0 41-14 43-38l32 2c-6 37-31 61-74 61-59 0-76-41-82-99-10-93 101-131 147-64 4 7 5 14 7 22l-32 3c-4-21-16-35-41-35" id="av"/><path fill="#333" d="M135-143c-3-34-86-38-87 0 15 53 115 12 119 90S17 21 10-45l28-5c4 36 97 45 98 0-10-56-113-15-118-90-4-57 82-63 122-42 12 7 21 19 24 35" id="aw"/><g id="b"><use transform="matrix(0.05,0,0,0.05,0,0)" xlink:href="#av"/><use transform="matrix(0.05,0,0,0.05,9,0)" xlink:href="#ao"/><use transform="matrix(0.05,0,0,0.05,19,0)" xlink:href="#ap"/><use transform="matrix(0.05,0,0,0.05,29,0)" xlink:href="#aq"/><use transform="matrix(0.05,0,0,0.05,39,0)" xlink:href="#ar"/><use transform="matrix(0.05,0,0,0.05,49,0)" xlink:href="#as"/><use transform="matrix(0.05,0,0,0.05,59,0)" xlink:href="#aw"/><use transform="matrix(0.05,0,0,0.05,68,0)" xlink:href="#as"/><use transform="matrix(0.05,0,0,0.05,78,0)" xlink:href="#au"/></g><path fill="#333" d="M115-194c55 1 70 41 70 98S169 2 115 4C84 4 66-9 55-30l1 105H24l-1-265h31l2 30c10-21 28-34 59-34zm-8 174c40 0 45-34 45-75s-6-73-45-74c-42 0-51 32-51 76 0 43 10 73 51 73" id="ax"/><path fill="#333" d="M143 0L79-87 56-68V0H24v-261h32v163l83-92h37l-77 82L181 0h-38" id="ay"/><g id="c"><use transform="matrix(0.05,0,0,0.05,0,0)" xlink:href="#ax"/><use transform="matrix(0.05,0,0,0.05,10,0)" xlink:href="#ap"/><use transform="matrix(0.05,0,0,0.05,20,0)" xlink:href="#av"/><use transform="matrix(0.05,0,0,0.05,29,0)" xlink:href="#ay"/><use transform="matrix(0.05,0,0,0.05,38,0)" xlink:href="#ap"/><use transform="matrix(0.05,0,0,0.05,48,0)" xlink:href="#ar"/><use transform="matrix(0.05,0,0,0.05,58,0)" xlink:href="#as"/><use transform="matrix(0.05,0,0,0.05,68,0)" xlink:href="#am"/></g><path fill="#333" d="M210-169c-67 3-38 105-44 169h-31v-121c0-29-5-50-35-48C34-165 62-65 56 0H25l-1-190h30c1 10-1 24 2 32 10-44 99-50 107 0 11-21 27-35 58-36 85-2 47 119 55 194h-31v-121c0-29-5-49-35-48" id="az"/><g id="d"><use transform="matrix(0.05,0,0,0.05,0,0)" xlink:href="#au"/><use transform="matrix(0.05,0,0,0.05,5,0)" xlink:href="#as"/><use transform="matrix(0.05,0,0,0.05,15,0)" xlink:href="#az"/><use transform="matrix(0.05,0,0,0.05,29.950000000000003,0)" xlink:href="#ax"/><use transform="matrix(0.05,0,0,0.05,39.95,0)" xlink:href="#al"/><use transform="matrix(0.05,0,0,0.05,43.900000000000006,0)" xlink:href="#ap"/><use transform="matrix(0.05,0,0,0.05,53.900000000000006,0)" xlink:href="#au"/><use transform="matrix(0.05,0,0,0.05,58.900000000000006,0)" xlink:href="#as"/></g><g id="e"><use transform="matrix(0.05,0,0,0.05,0,0)" xlink:href="#aw"/><use transform="matrix(0.05,0,0,0.05,9,0)" xlink:href="#au"/><use transform="matrix(0.05,0,0,0.05,14,0)" xlink:href="#ap"/><use transform="matrix(0.05,0,0,0.05,24,0)" xlink:href="#av"/><use transform="matrix(0.05,0,0,0.05,33,0)" xlink:href="#ay"/></g><path fill="#333" d="M206 0h-36l-40-164L89 0H53L-1-190h32L70-26l43-164h34l41 164 42-164h31" id="aA"/><path fill="#333" d="M115-194c53 0 69 39 70 98 0 66-23 100-70 100C84 3 66-7 56-30L54 0H23l1-261h32v101c10-23 28-34 59-34zm-8 174c40 0 45-34 45-75 0-40-5-75-45-74-42 0-51 32-51 76 0 43 10 73 51 73" id="aB"/><path fill="#333" d="M100-194c62-1 85 37 85 99 1 63-27 99-86 99S16-35 15-95c0-66 28-99 85-99zM99-20c44 1 53-31 53-75 0-43-8-75-51-75s-53 32-53 75 10 74 51 75" id="aC"/><path fill="#333" d="M101-234c-31-9-42 10-38 44h38v23H63V0H32v-167H5v-23h27c-7-52 17-82 69-68v24" id="aD"/><path fill="#333" d="M114-163C36-179 61-72 57 0H25l-1-190h30c1 12-1 29 2 39 6-27 23-49 58-41v29" id="aE"/><path fill="#333" d="M16-82v-28h88v28H16" id="aF"/><path fill="#333" d="M108 0H70L1-190h34L89-25l56-165h34" id="aG"/><g id="f"><use transform="matrix(0.05,0,0,0.05,0,0)" xlink:href="#aA"/><use transform="matrix(0.05,0,0,0.05,12.950000000000001,0)" xlink:href="#as"/><use transform="matrix(0.05,0,0,0.05,22.950000000000003,0)" xlink:href="#aB"/><use transform="matrix(0.05,0,0,0.05,32.95,0)" xlink:href="#aC"/><use transform="matrix(0.05,0,0,0.05,42.95,0)" xlink:href="#aD"/><use transform="matrix(0.05,0,0,0.05,47.95,0)" xlink:href="#au"/><use transform="matrix(0.05,0,0,0.05,52.95,0)" xlink:href="#aC"/><use transform="matrix(0.05,0,0,0.05,62.95,0)" xlink:href="#az"/><use transform="matrix(0.05,0,0,0.05,77.9,0)" xlink:href="#aC"/><use transform="matrix(0.05,0,0,0.05,87.9,0)" xlink:href="#aE"/><use transform="matrix(0.05,0,0,0.05,93.85000000000001,0)" xlink:href="#aE"/><use transform="matrix(0.05,0,0,0.05,99.80000000000001,0)" xlink:href="#aC"/><use transform="matrix(0.05,0,0,0.05,109.80000000000001,0)" xlink:href="#aA"/><use transform="matrix(0.05,0,0,0.05,122.75,0)" xlink:href="#aF"/><use transform="matrix(0.05,0,0,0.05,128.70000000000002,0)" xlink:href="#am"/><use transform="matrix(0.05,0,0,0.05,138.70000000000002,0)" xlink:href="#as"/><use transform="matrix(0.05,0,0,0.05,148.70000000000002,0)" xlink:href="#aG"/><use transform="matrix(0.05,0,0,0.05,157.70000000000002,0)" xlink:href="#aC"/><use transform="matrix(0.05,0,0,0.05,167.70000000000002,0)" xlink:href="#ax"/><use transform="matrix(0.05,0,0,0.05,177.70000000000002,0)" xlink:href="#aw"/></g><path fill="#333" d="M205 0l-28-72H64L36 0H1l101-248h38L239 0h-34zm-38-99l-47-123c-12 45-31 82-46 123h93" id="aH"/><g id="g"><use transform="matrix(0.05,0,0,0.05,0,0)" xlink:href="#aH"/><use transform="matrix(0.05,0,0,0.05,12,0)" xlink:href="#aE"/><use transform="matrix(0.05,0,0,0.05,17.95,0)" xlink:href="#au"/><use transform="matrix(0.05,0,0,0.05,22.95,0)" xlink:href="#ak"/><use transform="matrix(0.05,0,0,0.05,26.899999999999995,0)" xlink:href="#aD"/><use transform="matrix(0.05,0,0,0.05,31.899999999999995,0)" xlink:href="#ap"/><use transform="matrix(0.05,0,0,0.05,41.9,0)" xlink:href="#av"/><use transform="matrix(0.05,0,0,0.05,50.9,0)" xlink:href="#au"/><use transform="matrix(0.05,0,0,0.05,55.900000000000006,0)" xlink:href="#aw"/></g><path fill="#333" d="M266 0h-40l-56-210L115 0H75L2-248h35L96-30l15-64 43-154h32l59 218 59-218h35" id="aI"/><g id="h"><use transform="matrix(0.05,0,0,0.05,0,0)" xlink:href="#aH"/><use transform="matrix(0.05,0,0,0.05,11.35,0)" xlink:href="#aI"/><use transform="matrix(0.05,0,0,0.05,28.299999999999997,0)" xlink:href="#at"/></g><path fill="#333" d="M30 0v-248h33v221h125V0H30" id="aJ"/><path fill="#333" d="M33 0v-248h34V0H33" id="aK"/><g id="i"><use transform="matrix(0.05,0,0,0.05,0,0)" xlink:href="#an"/><use transform="matrix(0.05,0,0,0.05,12.950000000000001,0)" xlink:href="#aJ"/><use transform="matrix(0.05,0,0,0.05,22.950000000000003,0)" xlink:href="#aK"/></g><path fill="#333" d="M232-93c-1 65-40 97-104 97C67 4 28-28 28-90v-158h33c8 89-33 224 67 224 102 0 64-133 71-224h33v155" id="aL"/><g id="j"><use transform="matrix(0.05,0,0,0.05,0,0)" xlink:href="#aL"/><use transform="matrix(0.05,0,0,0.05,12.950000000000001,0)" xlink:href="#aw"/><use transform="matrix(0.05,0,0,0.05,21.950000000000003,0)" xlink:href="#as"/><use transform="matrix(0.05,0,0,0.05,31.950000000000003,0)" xlink:href="#aE"/></g><g id="k"><use transform="matrix(0.05,0,0,0.05,0,0)" xlink:href="#aA"/><use transform="matrix(0.05,0,0,0.05,12.950000000000001,0)" xlink:href="#ak"/><use transform="matrix(0.05,0,0,0.05,16.900000000000002,0)" xlink:href="#au"/><use transform="matrix(0.05,0,0,0.05,21.900000000000002,0)" xlink:href="#ao"/></g><g id="l"><use transform="matrix(0.05,0,0,0.05,0,0)" xlink:href="#ap"/><use transform="matrix(0.05,0,0,0.05,10,0)" xlink:href="#av"/><use transform="matrix(0.05,0,0,0.05,19,0)" xlink:href="#av"/><use transform="matrix(0.05,0,0,0.05,28,0)" xlink:href="#as"/><use transform="matrix(0.05,0,0,0.05,38,0)" xlink:href="#aw"/><use transform="matrix(0.05,0,0,0.05,47,0)" xlink:href="#aw"/></g><path fill="#333" d="M179-190L93 31C79 59 56 82 12 73V49c39 6 53-20 64-50L1-190h34L92-34l54-156h33" id="aM"/><g id="m"><use transform="matrix(0.05,0,0,0.05,0,0)" xlink:href="#ay"/><use transform="matrix(0.05,0,0,0.05,9,0)" xlink:href="#as"/><use transform="matrix(0.05,0,0,0.05,19,0)" xlink:href="#aM"/></g><path fill="#333" d="M87 75C49 33 22-17 22-94c0-76 28-126 65-167h31c-38 41-64 92-64 168S80 34 118 75H87" id="aN"/><g id="n"><use transform="matrix(0.05,0,0,0.05,0,0)" xlink:href="#aN"/><use transform="matrix(0.05,0,0,0.05,5.95,0)" xlink:href="#aq"/><use transform="matrix(0.05,0,0,0.05,15.949999999999998,0)" xlink:href="#aC"/></g><g id="o"><use transform="matrix(0.05,0,0,0.05,0,0)" xlink:href="#ap"/><use transform="matrix(0.05,0,0,0.05,10,0)" xlink:href="#aA"/><use transform="matrix(0.05,0,0,0.05,22.950000000000003,0)" xlink:href="#aw"/></g><path fill="#333" d="M33-261c38 41 65 92 65 168S71 34 33 75H2C39 34 66-17 66-93S39-220 2-261h31" id="aO"/><g id="p"><use transform="matrix(0.05,0,0,0.05,0,0)" xlink:href="#av"/><use transform="matrix(0.05,0,0,0.05,9,0)" xlink:href="#aC"/><use transform="matrix(0.05,0,0,0.05,19,0)" xlink:href="#aq"/><use transform="matrix(0.05,0,0,0.05,29,0)" xlink:href="#aw"/><use transform="matrix(0.05,0,0,0.05,38,0)" xlink:href="#aC"/><use transform="matrix(0.05,0,0,0.05,48,0)" xlink:href="#al"/><use transform="matrix(0.05,0,0,0.05,51.95,0)" xlink:href="#as"/><use transform="matrix(0.05,0,0,0.05,61.95,0)" xlink:href="#aO"/></g><g id="r"><use transform="matrix(0.05,0,0,0.05,0,0)" xlink:href="#an"/><use transform="matrix(0.05,0,0,0.05,12.950000000000001,0)" xlink:href="#aC"/><use transform="matrix(0.05,0,0,0.05,22.950000000000003,0)" xlink:href="#aq"/><use transform="matrix(0.05,0,0,0.05,32.95,0)" xlink:href="#aw"/><use transform="matrix(0.05,0,0,0.05,41.95,0)" xlink:href="#aC"/><use transform="matrix(0.05,0,0,0.05,51.95,0)" xlink:href="#al"/><use transform="matrix(0.05,0,0,0.05,55.900000000000006,0)" xlink:href="#as"/></g><g id="s"><use transform="matrix(0.05,0,0,0.05,0,0)" xlink:href="#aj"/><use transform="matrix(0.05,0,0,0.05,10,0)" xlink:href="#aw"/><use transform="matrix(0.05,0,0,0.05,19,0)" xlink:href="#as"/><use transform="matrix(0.05,0,0,0.05,29,0)" xlink:href="#aE"/></g><g id="t"><use transform="matrix(0.05,0,0,0.05,0,0)" xlink:href="#ap"/><use transform="matrix(0.05,0,0,0.05,10,0)" xlink:href="#aw"/><use transform="matrix(0.05,0,0,0.05,19,0)" xlink:href="#aw"/><use transform="matrix(0.05,0,0,0.05,28,0)" xlink:href="#aj"/><use transform="matrix(0.05,0,0,0.05,38,0)" xlink:href="#az"/><use transform="matrix(0.05,0,0,0.05,52.95,0)" xlink:href="#as"/><use transform="matrix(0.05,0,0,0.05,62.95,0)" xlink:href="#aw"/></g><g id="u"><use transform="matrix(0.05,0,0,0.05,0,0)" xlink:href="#aE"/><use transform="matrix(0.05,0,0,0.05,5.95,0)" xlink:href="#aC"/><use transform="matrix(0.05,0,0,0.05,15.949999999999998,0)" xlink:href="#al"/><use transform="matrix(0.05,0,0,0.05,19.9,0)" xlink:href="#as"/></g><g id="v"><use transform="matrix(0.05,0,0,0.05,0,0)" xlink:href="#aE"/><use transform="matrix(0.05,0,0,0.05,5.95,0)" xlink:href="#as"/><use transform="matrix(0.05,0,0,0.05,15.949999999999998,0)" xlink:href="#aG"/><use transform="matrix(0.05,0,0,0.05,24.95,0)" xlink:href="#ak"/><use transform="matrix(0.05,0,0,0.05,28.899999999999995,0)" xlink:href="#as"/><use transform="matrix(0.05,0,0,0.05,38.9,0)" xlink:href="#aA"/><use transform="matrix(0.05,0,0,0.05,51.85,0)" xlink:href="#aw"/></g><g id="w"><use transform="matrix(0.05,0,0,0.05,0,0)" xlink:href="#av"/><use transform="matrix(0.05,0,0,0.05,9,0)" xlink:href="#ao"/><use transform="matrix(0.05,0,0,0.05,19,0)" xlink:href="#ap"/><use transform="matrix(0.05,0,0,0.05,29,0)" xlink:href="#aq"/><use transform="matrix(0.05,0,0,0.05,39,0)" xlink:href="#ar"/><use transform="matrix(0.05,0,0,0.05,49,0)" xlink:href="#as"/><use transform="matrix(0.05,0,0,0.05,59,0)" xlink:href="#aw"/><use transform="matrix(0.05,0,0,0.05,68,0)" xlink:href="#as"/><use transform="matrix(0.05,0,0,0.05,78,0)" xlink:href="#au"/></g><path fill="#333" d="M30-248c118-7 216 8 213 122C240-48 200 0 122 0H30v-248zM63-27c89 8 146-16 146-99s-60-101-146-95v194" id="aP"/><g id="x"><use transform="matrix(0.05,0,0,0.05,0,0)" xlink:href="#aP"/><use transform="matrix(0.05,0,0,0.05,12.950000000000001,0)" xlink:href="#as"/><use transform="matrix(0.05,0,0,0.05,22.950000000000003,0)" xlink:href="#ax"/><use transform="matrix(0.05,0,0,0.05,32.95,0)" xlink:href="#al"/><use transform="matrix(0.05,0,0,0.05,36.900000000000006,0)" xlink:href="#aC"/><use transform="matrix(0.05,0,0,0.05,46.900000000000006,0)" xlink:href="#aM"/><use transform="matrix(0.05,0,0,0.05,55.900000000000006,0)" xlink:href="#aw"/></g><g id="y"><use transform="matrix(0.05,0,0,0.05,0,0)" xlink:href="#aw"/><use transform="matrix(0.05,0,0,0.05,9,0)" xlink:href="#au"/><use transform="matrix(0.05,0,0,0.05,14,0)" xlink:href="#ap"/><use transform="matrix(0.05,0,0,0.05,24,0)" xlink:href="#av"/><use transform="matrix(0.05,0,0,0.05,33,0)" xlink:href="#ay"/></g><g id="z"><use transform="matrix(0.05,0,0,0.05,0,0)" xlink:href="#aw"/><use transform="matrix(0.05,0,0,0.05,9,0)" xlink:href="#au"/><use transform="matrix(0.05,0,0,0.05,14,0)" xlink:href="#ap"/><use transform="matrix(0.05,0,0,0.05,24,0)" xlink:href="#aE"/><use transform="matrix(0.05,0,0,0.05,29.950000000000003,0)" xlink:href="#au"/><use transform="matrix(0.05,0,0,0.05,34.95,0)" xlink:href="#aF"/><use transform="matrix(0.05,0,0,0.05,40.900000000000006,0)" xlink:href="#aB"/><use transform="matrix(0.05,0,0,0.05,50.900000000000006,0)" xlink:href="#aj"/><use transform="matrix(0.05,0,0,0.05,60.900000000000006,0)" xlink:href="#ak"/><use transform="matrix(0.05,0,0,0.05,64.85000000000001,0)" xlink:href="#al"/><use transform="matrix(0.05,0,0,0.05,68.80000000000001,0)" xlink:href="#am"/></g><g id="A"><use transform="matrix(0.05,0,0,0.05,0,0)" xlink:href="#at"/><use transform="matrix(0.05,0,0,0.05,12,0)" xlink:href="#au"/><use transform="matrix(0.05,0,0,0.05,17,0)" xlink:href="#ap"/><use transform="matrix(0.05,0,0,0.05,27,0)" xlink:href="#au"/><use transform="matrix(0.05,0,0,0.05,32,0)" xlink:href="#ak"/><use transform="matrix(0.05,0,0,0.05,35.95,0)" xlink:href="#av"/><use transform="matrix(0.05,0,0,0.05,44.95,0)" xlink:href="#ai"/><use transform="matrix(0.05,0,0,0.05,56.95,0)" xlink:href="#aj"/><use transform="matrix(0.05,0,0,0.05,66.95,0)" xlink:href="#ak"/><use transform="matrix(0.05,0,0,0.05,70.9,0)" xlink:href="#al"/><use transform="matrix(0.05,0,0,0.05,74.85000000000001,0)" xlink:href="#am"/></g><path fill="#333" d="M143 4C61 4 22-44 18-125c-5-107 100-154 193-111 17 8 29 25 37 43l-32 9c-13-25-37-40-76-40-61 0-88 39-88 99 0 61 29 100 91 101 35 0 62-11 79-27v-45h-74v-28h105v86C228-13 192 4 143 4" id="aQ"/><path fill="#333" d="M127-220V0H93v-220H8v-28h204v28h-85" id="aR"/><g id="B"><use transform="matrix(0.05,0,0,0.05,0,0)" xlink:href="#at"/><use transform="matrix(0.05,0,0,0.05,12,0)" xlink:href="#aM"/><use transform="matrix(0.05,0,0,0.05,21,0)" xlink:href="#aq"/><use transform="matrix(0.05,0,0,0.05,31,0)" xlink:href="#av"/><use transform="matrix(0.05,0,0,0.05,40,0)" xlink:href="#aQ"/><use transform="matrix(0.05,0,0,0.05,54,0)" xlink:href="#aE"/><use transform="matrix(0.05,0,0,0.05,59.95,0)" xlink:href="#as"/><use transform="matrix(0.05,0,0,0.05,69.95,0)" xlink:href="#as"/><use transform="matrix(0.05,0,0,0.05,79.95,0)" xlink:href="#aq"/><use transform="matrix(0.05,0,0,0.05,89.95,0)" xlink:href="#aR"/><use transform="matrix(0.05,0,0,0.05,98.9,0)" xlink:href="#aC"/><use transform="matrix(0.05,0,0,0.05,108.9,0)" xlink:href="#ai"/><use transform="matrix(0.05,0,0,0.05,120.9,0)" xlink:href="#al"/><use transform="matrix(0.05,0,0,0.05,124.85000000000001,0)" xlink:href="#aj"/><use transform="matrix(0.05,0,0,0.05,134.85000000000002,0)" xlink:href="#as"/></g><g id="C"><use transform="matrix(0.05,0,0,0.05,0,0)" xlink:href="#at"/><use transform="matrix(0.05,0,0,0.05,12,0)" xlink:href="#au"/><use transform="matrix(0.05,0,0,0.05,17,0)" xlink:href="#ap"/><use transform="matrix(0.05,0,0,0.05,27,0)" xlink:href="#au"/><use transform="matrix(0.05,0,0,0.05,32,0)" xlink:href="#ak"/><use transform="matrix(0.05,0,0,0.05,35.95,0)" xlink:href="#av"/><use transform="matrix(0.05,0,0,0.05,44.95,0)" xlink:href="#aR"/><use transform="matrix(0.05,0,0,0.05,53.900000000000006,0)" xlink:href="#as"/><use transform="matrix(0.05,0,0,0.05,63.900000000000006,0)" xlink:href="#aw"/><use transform="matrix(0.05,0,0,0.05,72.9,0)" xlink:href="#au"/></g><path fill="#333" d="M137 0h-34L2-248h35l83 218 83-218h36" id="aS"/><g id="D"><use transform="matrix(0.05,0,0,0.05,0,0)" xlink:href="#aP"/><use transform="matrix(0.05,0,0,0.05,12.950000000000001,0)" xlink:href="#as"/><use transform="matrix(0.05,0,0,0.05,22.950000000000003,0)" xlink:href="#ax"/><use transform="matrix(0.05,0,0,0.05,32.95,0)" xlink:href="#al"/><use transform="matrix(0.05,0,0,0.05,36.900000000000006,0)" xlink:href="#aC"/><use transform="matrix(0.05,0,0,0.05,46.900000000000006,0)" xlink:href="#aM"/><use transform="matrix(0.05,0,0,0.05,55.900000000000006,0)" xlink:href="#aQ"/><use transform="matrix(0.05,0,0,0.05,69.9,0)" xlink:href="#aE"/><use transform="matrix(0.05,0,0,0.05,75.85000000000001,0)" xlink:href="#as"/><use transform="matrix(0.05,0,0,0.05,85.85000000000001,0)" xlink:href="#as"/><use transform="matrix(0.05,0,0,0.05,95.85000000000001,0)" xlink:href="#aq"/><use transform="matrix(0.05,0,0,0.05,105.85000000000001,0)" xlink:href="#aS"/><use transform="matrix(0.05,0,0,0.05,116.85000000000001,0)" xlink:href="#as"/><use transform="matrix(0.05,0,0,0.05,126.85000000000001,0)" xlink:href="#aE"/><use transform="matrix(0.05,0,0,0.05,132.8,0)" xlink:href="#aw"/><use transform="matrix(0.05,0,0,0.05,141.8,0)" xlink:href="#ak"/><use transform="matrix(0.05,0,0,0.05,145.75,0)" xlink:href="#aC"/><use transform="matrix(0.05,0,0,0.05,155.75,0)" xlink:href="#aq"/></g><path fill="#333" d="M30-248c87 1 191-15 191 75 0 78-77 80-158 76V0H30v-248zm33 125c57 0 124 11 124-50 0-59-68-47-124-48v98" id="aT"/><g id="E"><use transform="matrix(0.05,0,0,0.05,0,0)" xlink:href="#at"/><use transform="matrix(0.05,0,0,0.05,12,0)" xlink:href="#au"/><use transform="matrix(0.05,0,0,0.05,17,0)" xlink:href="#ap"/><use transform="matrix(0.05,0,0,0.05,27,0)" xlink:href="#au"/><use transform="matrix(0.05,0,0,0.05,32,0)" xlink:href="#ak"/><use transform="matrix(0.05,0,0,0.05,35.95,0)" xlink:href="#av"/><use transform="matrix(0.05,0,0,0.05,44.95,0)" xlink:href="#aT"/><use transform="matrix(0.05,0,0,0.05,56.95,0)" xlink:href="#ak"/><use transform="matrix(0.05,0,0,0.05,60.900000000000006,0)" xlink:href="#ax"/><use transform="matrix(0.05,0,0,0.05,70.9,0)" xlink:href="#as"/><use transform="matrix(0.05,0,0,0.05,80.9,0)" xlink:href="#al"/><use transform="matrix(0.05,0,0,0.05,84.85000000000001,0)" xlink:href="#ak"/><use transform="matrix(0.05,0,0,0.05,88.80000000000001,0)" xlink:href="#aq"/><use transform="matrix(0.05,0,0,0.05,98.80000000000001,0)" xlink:href="#as"/></g><path fill="#333" d="M63-220v92h138v28H63V0H30v-248h175v28H63" id="aU"/><g id="F"><use transform="matrix(0.05,0,0,0.05,0,0)" xlink:href="#an"/><use transform="matrix(0.05,0,0,0.05,12.950000000000001,0)" xlink:href="#al"/><use transform="matrix(0.05,0,0,0.05,16.900000000000002,0)" xlink:href="#aC"/><use transform="matrix(0.05,0,0,0.05,26.900000000000002,0)" xlink:href="#aj"/><use transform="matrix(0.05,0,0,0.05,36.900000000000006,0)" xlink:href="#am"/><use transform="matrix(0.05,0,0,0.05,46.900000000000006,0)" xlink:href="#aU"/><use transform="matrix(0.05,0,0,0.05,57.85,0)" xlink:href="#aE"/><use transform="matrix(0.05,0,0,0.05,63.80000000000001,0)" xlink:href="#aC"/><use transform="matrix(0.05,0,0,0.05,73.80000000000001,0)" xlink:href="#aq"/><use transform="matrix(0.05,0,0,0.05,83.80000000000001,0)" xlink:href="#au"/><use transform="matrix(0.05,0,0,0.05,88.80000000000001,0)" xlink:href="#at"/><use transform="matrix(0.05,0,0,0.05,100.80000000000001,0)" xlink:href="#au"/><use transform="matrix(0.05,0,0,0.05,105.80000000000001,0)" xlink:href="#ap"/><use transform="matrix(0.05,0,0,0.05,115.80000000000001,0)" xlink:href="#ar"/><use transform="matrix(0.05,0,0,0.05,125.80000000000001,0)" xlink:href="#ak"/><use transform="matrix(0.05,0,0,0.05,129.75,0)" xlink:href="#aq"/><use transform="matrix(0.05,0,0,0.05,139.75,0)" xlink:href="#ar"/></g><path d="M143 4C61 4 22-44 18-125c-5-107 100-154 193-111 17 8 29 25 37 43l-32 9c-13-25-37-40-76-40-61 0-88 39-88 99 0 61 29 100 91 101 35 0 62-11 79-27v-45h-74v-28h105v86C228-13 192 4 143 4" id="aV"/><path d="M24-231v-30h32v30H24zM24 0v-190h32V0H24" id="aW"/><path d="M59-47c-2 24 18 29 38 22v24C64 9 27 4 27-40v-127H5v-23h24l9-43h21v43h35v23H59v120" id="aX"/><path d="M197 0v-115H63V0H30v-248h33v105h134v-105h34V0h-34" id="aY"/><path d="M84 4C-5 8 30-112 23-190h32v120c0 31 7 50 39 49 72-2 45-101 50-169h31l1 190h-30c-1-10 1-25-2-33-11 22-28 36-60 37" id="aZ"/><path d="M115-194c53 0 69 39 70 98 0 66-23 100-70 100C84 3 66-7 56-30L54 0H23l1-261h32v101c10-23 28-34 59-34zm-8 174c40 0 45-34 45-75 0-40-5-75-45-74-42 0-51 32-51 76 0 43 10 73 51 73" id="ba"/><g id="G"><use transform="matrix(0.05,0,0,0.05,0,0)" xlink:href="#aV"/><use transform="matrix(0.05,0,0,0.05,14,0)" xlink:href="#aW"/><use transform="matrix(0.05,0,0,0.05,17.95,0)" xlink:href="#aX"/><use transform="matrix(0.05,0,0,0.05,22.95,0)" xlink:href="#aY"/><use transform="matrix(0.05,0,0,0.05,35.9,0)" xlink:href="#aZ"/><use transform="matrix(0.05,0,0,0.05,45.9,0)" xlink:href="#ba"/></g><g id="H"><use transform="matrix(0.05,0,0,0.05,0,0)" xlink:href="#aI"/><use transform="matrix(0.05,0,0,0.05,16.599999999999998,0)" xlink:href="#as"/><use transform="matrix(0.05,0,0,0.05,26.599999999999994,0)" xlink:href="#aB"/><use transform="matrix(0.05,0,0,0.05,36.599999999999994,0)" xlink:href="#ao"/><use transform="matrix(0.05,0,0,0.05,46.599999999999994,0)" xlink:href="#aC"/><use transform="matrix(0.05,0,0,0.05,56.599999999999994,0)" xlink:href="#aC"/><use transform="matrix(0.05,0,0,0.05,66.6,0)" xlink:href="#ay"/></g><path fill="#333" d="M33 0v-38h34V0H33" id="bb"/><path fill="#333" d="M9 0v-24l116-142H16v-24h144v24L44-24h123V0H9" id="bc"/><g id="I"><use transform="matrix(0.05,0,0,0.05,0,0)" xlink:href="#aw"/><use transform="matrix(0.05,0,0,0.05,9,0)" xlink:href="#au"/><use transform="matrix(0.05,0,0,0.05,14,0)" xlink:href="#ap"/><use transform="matrix(0.05,0,0,0.05,24,0)" xlink:href="#au"/><use transform="matrix(0.05,0,0,0.05,29,0)" xlink:href="#ak"/><use transform="matrix(0.05,0,0,0.05,32.95,0)" xlink:href="#av"/><use transform="matrix(0.05,0,0,0.05,41.95,0)" xlink:href="#bb"/><use transform="matrix(0.05,0,0,0.05,46.95,0)" xlink:href="#bc"/><use transform="matrix(0.05,0,0,0.05,55.95,0)" xlink:href="#ak"/><use transform="matrix(0.05,0,0,0.05,59.900000000000006,0)" xlink:href="#ax"/></g><g id="J"><use transform="matrix(0.05,0,0,0.05,0,0)" xlink:href="#au"/><use transform="matrix(0.05,0,0,0.05,5,0)" xlink:href="#aE"/><use transform="matrix(0.05,0,0,0.05,10.95,0)" xlink:href="#ak"/><use transform="matrix(0.05,0,0,0.05,14.899999999999999,0)" xlink:href="#ar"/><use transform="matrix(0.05,0,0,0.05,24.9,0)" xlink:href="#ar"/><use transform="matrix(0.05,0,0,0.05,34.9,0)" xlink:href="#as"/><use transform="matrix(0.05,0,0,0.05,44.9,0)" xlink:href="#aE"/><use transform="matrix(0.05,0,0,0.05,50.85,0)" xlink:href="#aw"/></g><g id="K"><use transform="matrix(0.05,0,0,0.05,0,0)" xlink:href="#ax"/><use transform="matrix(0.05,0,0,0.05,10,0)" xlink:href="#ak"/><use transform="matrix(0.05,0,0,0.05,13.949999999999998,0)" xlink:href="#ax"/><use transform="matrix(0.05,0,0,0.05,23.95,0)" xlink:href="#as"/><use transform="matrix(0.05,0,0,0.05,33.95,0)" xlink:href="#al"/><use transform="matrix(0.05,0,0,0.05,37.900000000000006,0)" xlink:href="#ak"/><use transform="matrix(0.05,0,0,0.05,41.85000000000001,0)" xlink:href="#aq"/><use transform="matrix(0.05,0,0,0.05,51.85,0)" xlink:href="#as"/></g><g id="L"><use transform="matrix(0.05,0,0,0.05,0,0)" xlink:href="#aI"/><use transform="matrix(0.05,0,0,0.05,16.599999999999998,0)" xlink:href="#as"/><use transform="matrix(0.05,0,0,0.05,26.599999999999994,0)" xlink:href="#aB"/><use transform="matrix(0.05,0,0,0.05,36.599999999999994,0)" xlink:href="#aw"/><use transform="matrix(0.05,0,0,0.05,45.599999999999994,0)" xlink:href="#ak"/><use transform="matrix(0.05,0,0,0.05,49.55,0)" xlink:href="#au"/><use transform="matrix(0.05,0,0,0.05,54.54999999999999,0)" xlink:href="#as"/></g><g id="M"><use transform="matrix(0.05,0,0,0.05,0,0)" xlink:href="#at"/><use transform="matrix(0.05,0,0,0.05,12,0)" xlink:href="#au"/><use transform="matrix(0.05,0,0,0.05,17,0)" xlink:href="#ap"/><use transform="matrix(0.05,0,0,0.05,27,0)" xlink:href="#au"/><use transform="matrix(0.05,0,0,0.05,32,0)" xlink:href="#ak"/><use transform="matrix(0.05,0,0,0.05,35.95,0)" xlink:href="#av"/><use transform="matrix(0.05,0,0,0.05,44.95,0)" xlink:href="#aT"/><use transform="matrix(0.05,0,0,0.05,56.95,0)" xlink:href="#ap"/><use transform="matrix(0.05,0,0,0.05,66.95,0)" xlink:href="#au"/><use transform="matrix(0.05,0,0,0.05,71.95,0)" xlink:href="#av"/><use transform="matrix(0.05,0,0,0.05,80.95,0)" xlink:href="#ao"/></g><g id="N"><use transform="matrix(0.05,0,0,0.05,0,0)" xlink:href="#an"/><use transform="matrix(0.05,0,0,0.05,12.950000000000001,0)" xlink:href="#al"/><use transform="matrix(0.05,0,0,0.05,16.900000000000002,0)" xlink:href="#aC"/><use transform="matrix(0.05,0,0,0.05,26.900000000000002,0)" xlink:href="#aj"/><use transform="matrix(0.05,0,0,0.05,36.900000000000006,0)" xlink:href="#am"/><use transform="matrix(0.05,0,0,0.05,46.900000000000006,0)" xlink:href="#aU"/><use transform="matrix(0.05,0,0,0.05,57.85,0)" xlink:href="#aE"/><use transform="matrix(0.05,0,0,0.05,63.80000000000001,0)" xlink:href="#aC"/><use transform="matrix(0.05,0,0,0.05,73.80000000000001,0)" xlink:href="#aq"/><use transform="matrix(0.05,0,0,0.05,83.80000000000001,0)" xlink:href="#au"/><use transform="matrix(0.05,0,0,0.05,88.80000000000001,0)" xlink:href="#aT"/><use transform="matrix(0.05,0,0,0.05,100.80000000000001,0)" xlink:href="#aE"/><use transform="matrix(0.05,0,0,0.05,106.75,0)" xlink:href="#aC"/><use transform="matrix(0.05,0,0,0.05,116.75,0)" xlink:href="#am"/><use transform="matrix(0.05,0,0,0.05,126.75,0)" xlink:href="#aj"/><use transform="matrix(0.05,0,0,0.05,136.75,0)" xlink:href="#av"/><use transform="matrix(0.05,0,0,0.05,145.75,0)" xlink:href="#au"/><use transform="matrix(0.05,0,0,0.05,150.75,0)" xlink:href="#ak"/><use transform="matrix(0.05,0,0,0.05,154.7,0)" xlink:href="#aC"/><use transform="matrix(0.05,0,0,0.05,164.7,0)" xlink:href="#aq"/></g><g id="O"><use transform="matrix(0.05,0,0,0.05,0,0)" xlink:href="#ak"/><use transform="matrix(0.05,0,0,0.05,3.95,0)" xlink:href="#aq"/><use transform="matrix(0.05,0,0,0.05,13.949999999999998,0)" xlink:href="#au"/><use transform="matrix(0.05,0,0,0.05,18.95,0)" xlink:href="#as"/><use transform="matrix(0.05,0,0,0.05,28.950000000000003,0)" xlink:href="#ar"/><use transform="matrix(0.05,0,0,0.05,38.95,0)" xlink:href="#aE"/><use transform="matrix(0.05,0,0,0.05,44.900000000000006,0)" xlink:href="#ap"/><use transform="matrix(0.05,0,0,0.05,54.900000000000006,0)" xlink:href="#au"/><use transform="matrix(0.05,0,0,0.05,59.900000000000006,0)" xlink:href="#ak"/><use transform="matrix(0.05,0,0,0.05,63.85,0)" xlink:href="#aC"/><use transform="matrix(0.05,0,0,0.05,73.85000000000001,0)" xlink:href="#aq"/></g><g id="P"><use transform="matrix(0.05,0,0,0.05,0,0)" xlink:href="#au"/><use transform="matrix(0.05,0,0,0.05,5,0)" xlink:href="#as"/><use transform="matrix(0.05,0,0,0.05,15,0)" xlink:href="#aw"/><use transform="matrix(0.05,0,0,0.05,24,0)" xlink:href="#au"/><use transform="matrix(0.05,0,0,0.05,29,0)" xlink:href="#aw"/></g><g id="Q"><use transform="matrix(0.05,0,0,0.05,0,0)" xlink:href="#at"/><use transform="matrix(0.05,0,0,0.05,12,0)" xlink:href="#ao"/><use transform="matrix(0.05,0,0,0.05,22,0)" xlink:href="#aC"/><use transform="matrix(0.05,0,0,0.05,32,0)" xlink:href="#aE"/><use transform="matrix(0.05,0,0,0.05,37.95,0)" xlink:href="#au"/><use transform="matrix(0.05,0,0,0.05,42.95,0)" xlink:href="#av"/><use transform="matrix(0.05,0,0,0.05,51.95,0)" xlink:href="#aj"/><use transform="matrix(0.05,0,0,0.05,61.95,0)" xlink:href="#au"/></g><g id="R"><use transform="matrix(0.05,0,0,0.05,0,0)" xlink:href="#au"/><use transform="matrix(0.05,0,0,0.05,5,0)" xlink:href="#aC"/></g><g id="S"><use transform="matrix(0.05,0,0,0.05,0,0)" xlink:href="#am"/><use transform="matrix(0.05,0,0,0.05,10,0)" xlink:href="#as"/><use transform="matrix(0.05,0,0,0.05,20,0)" xlink:href="#ax"/><use transform="matrix(0.05,0,0,0.05,30,0)" xlink:href="#al"/><use transform="matrix(0.05,0,0,0.05,33.95,0)" xlink:href="#aC"/><use transform="matrix(0.05,0,0,0.05,43.95,0)" xlink:href="#aM"/></g><g id="T"><use transform="matrix(0.05,0,0,0.05,0,0)" xlink:href="#aG"/><use transform="matrix(0.05,0,0,0.05,9,0)" xlink:href="#ak"/><use transform="matrix(0.05,0,0,0.05,12.949999999999998,0)" xlink:href="#ap"/></g><g id="U"><use transform="matrix(0.05,0,0,0.05,0,0)" xlink:href="#ax"/><use transform="matrix(0.05,0,0,0.05,10,0)" xlink:href="#ap"/><use transform="matrix(0.05,0,0,0.05,20,0)" xlink:href="#au"/><use transform="matrix(0.05,0,0,0.05,25,0)" xlink:href="#av"/><use transform="matrix(0.05,0,0,0.05,34,0)" xlink:href="#ao"/><use transform="matrix(0.05,0,0,0.05,44,0)" xlink:href="#ak"/><use transform="matrix(0.05,0,0,0.05,47.95,0)" xlink:href="#aq"/><use transform="matrix(0.05,0,0,0.05,57.95,0)" xlink:href="#ar"/></g><g id="V"><use transform="matrix(0.05,0,0,0.05,0,0)" xlink:href="#aD"/><use transform="matrix(0.05,0,0,0.05,5,0)" xlink:href="#ak"/><use transform="matrix(0.05,0,0,0.05,8.95,0)" xlink:href="#al"/><use transform="matrix(0.05,0,0,0.05,12.899999999999999,0)" xlink:href="#as"/><use transform="matrix(0.05,0,0,0.05,22.9,0)" xlink:href="#aw"/></g><g id="W"><use transform="matrix(0.05,0,0,0.05,0,0)" xlink:href="#at"/><use transform="matrix(0.05,0,0,0.05,12,0)" xlink:href="#au"/><use transform="matrix(0.05,0,0,0.05,17,0)" xlink:href="#ap"/><use transform="matrix(0.05,0,0,0.05,27,0)" xlink:href="#aq"/><use transform="matrix(0.05,0,0,0.05,37,0)" xlink:href="#am"/><use transform="matrix(0.05,0,0,0.05,47,0)" xlink:href="#ap"/><use transform="matrix(0.05,0,0,0.05,57,0)" xlink:href="#aE"/><use transform="matrix(0.05,0,0,0.05,62.95,0)" xlink:href="#am"/></g><g id="X"><use transform="matrix(0.05,0,0,0.05,0,0)" xlink:href="#am"/><use transform="matrix(0.05,0,0,0.05,10,0)" xlink:href="#as"/><use transform="matrix(0.05,0,0,0.05,20,0)" xlink:href="#ax"/><use transform="matrix(0.05,0,0,0.05,30,0)" xlink:href="#al"/><use transform="matrix(0.05,0,0,0.05,33.95,0)" xlink:href="#aC"/><use transform="matrix(0.05,0,0,0.05,43.95,0)" xlink:href="#aM"/><use transform="matrix(0.05,0,0,0.05,52.95,0)" xlink:href="#az"/><use transform="matrix(0.05,0,0,0.05,67.9,0)" xlink:href="#as"/><use transform="matrix(0.05,0,0,0.05,77.9,0)" xlink:href="#aq"/><use transform="matrix(0.05,0,0,0.05,87.9,0)" xlink:href="#au"/></g><g id="Y"><use transform="matrix(0.05,0,0,0.05,0,0)" xlink:href="#aG"/><use transform="matrix(0.05,0,0,0.05,9,0)" xlink:href="#ak"/><use transform="matrix(0.05,0,0,0.05,12.949999999999998,0)" xlink:href="#ap"/></g><g id="Z"><use transform="matrix(0.05,0,0,0.05,0,0)" xlink:href="#ax"/><use transform="matrix(0.05,0,0,0.05,10,0)" xlink:href="#aj"/><use transform="matrix(0.05,0,0,0.05,20,0)" xlink:href="#aw"/><use transform="matrix(0.05,0,0,0.05,29,0)" xlink:href="#ao"/><use transform="matrix(0.05,0,0,0.05,39,0)" xlink:href="#ak"/><use transform="matrix(0.05,0,0,0.05,42.95,0)" xlink:href="#aq"/><use transform="matrix(0.05,0,0,0.05,52.95,0)" xlink:href="#ar"/></g><use transform="matrix(0.05,0,0,0.05,0,0)" xlink:href="#ap" id="aa"/><g id="ab"><use transform="matrix(0.05,0,0,0.05,0,0)" xlink:href="#aE"/><use transform="matrix(0.05,0,0,0.05,5.95,0)" xlink:href="#as"/><use transform="matrix(0.05,0,0,0.05,15.949999999999998,0)" xlink:href="#al"/><use transform="matrix(0.05,0,0,0.05,19.9,0)" xlink:href="#as"/><use transform="matrix(0.05,0,0,0.05,29.899999999999995,0)" xlink:href="#ap"/><use transform="matrix(0.05,0,0,0.05,39.9,0)" xlink:href="#aw"/><use transform="matrix(0.05,0,0,0.05,48.9,0)" xlink:href="#as"/></g><g id="ac"><use transform="matrix(0.05,0,0,0.05,0,0)" xlink:href="#aB"/><use transform="matrix(0.05,0,0,0.05,10,0)" xlink:href="#aE"/><use transform="matrix(0.05,0,0,0.05,15.949999999999998,0)" xlink:href="#ap"/><use transform="matrix(0.05,0,0,0.05,25.950000000000003,0)" xlink:href="#aq"/><use transform="matrix(0.05,0,0,0.05,35.95,0)" xlink:href="#av"/><use transform="matrix(0.05,0,0,0.05,44.95,0)" xlink:href="#ao"/></g><g id="ad"><use transform="matrix(0.05,0,0,0.05,0,0)" xlink:href="#an"/><use transform="matrix(0.05,0,0,0.05,12.950000000000001,0)" xlink:href="#aE"/><use transform="matrix(0.05,0,0,0.05,18.900000000000002,0)" xlink:href="#as"/><use transform="matrix(0.05,0,0,0.05,28.900000000000002,0)" xlink:href="#ap"/><use transform="matrix(0.05,0,0,0.05,38.900000000000006,0)" xlink:href="#au"/><use transform="matrix(0.05,0,0,0.05,43.900000000000006,0)" xlink:href="#as"/></g><g id="ae"><use transform="matrix(0.05,0,0,0.05,0,0)" xlink:href="#ap"/><use transform="matrix(0.05,0,0,0.05,10,0)" xlink:href="#aq"/><use transform="matrix(0.05,0,0,0.05,20,0)" xlink:href="#am"/></g><g id="af"><use transform="matrix(0.05,0,0,0.05,0,0)" xlink:href="#aj"/><use transform="matrix(0.05,0,0,0.05,10,0)" xlink:href="#ax"/><use transform="matrix(0.05,0,0,0.05,20,0)" xlink:href="#am"/><use transform="matrix(0.05,0,0,0.05,30,0)" xlink:href="#ap"/><use transform="matrix(0.05,0,0,0.05,40,0)" xlink:href="#au"/><use transform="matrix(0.05,0,0,0.05,45,0)" xlink:href="#as"/></g><g id="ag"><use transform="matrix(0.05,0,0,0.05,0,0)" xlink:href="#au"/><use transform="matrix(0.05,0,0,0.05,5,0)" xlink:href="#ao"/><use transform="matrix(0.05,0,0,0.05,15,0)" xlink:href="#as"/></g><g id="ah"><use transform="matrix(0.05,0,0,0.05,0,0)" xlink:href="#ak"/><use transform="matrix(0.05,0,0,0.05,3.95,0)" xlink:href="#aq"/><use transform="matrix(0.05,0,0,0.05,13.949999999999998,0)" xlink:href="#aD"/><use transform="matrix(0.05,0,0,0.05,18.95,0)" xlink:href="#aE"/><use transform="matrix(0.05,0,0,0.05,24.9,0)" xlink:href="#ap"/><use transform="matrix(0.05,0,0,0.05,34.9,0)" xlink:href="#aw"/><use transform="matrix(0.05,0,0,0.05,43.9,0)" xlink:href="#au"/><use transform="matrix(0.05,0,0,0.05,48.9,0)" xlink:href="#aE"/><use transform="matrix(0.05,0,0,0.05,54.85,0)" xlink:href="#aj"/><use transform="matrix(0.05,0,0,0.05,64.85,0)" xlink:href="#av"/><use transform="matrix(0.05,0,0,0.05,73.85,0)" xlink:href="#au"/><use transform="matrix(0.05,0,0,0.05,78.85,0)" xlink:href="#aj"/><use transform="matrix(0.05,0,0,0.05,88.85,0)" xlink:href="#aE"/><use transform="matrix(0.05,0,0,0.05,94.8,0)" xlink:href="#as"/></g></defs></g></svg>