<svg xmlns="http://www.w3.org/2000/svg" viewBox="0,0,160,160" xmlns:inkpad="http://taptrix.com/inkpad/svg_extensions" width="160pt" height="160pt"><g fill="#534556" inkpad:layerName="Layer 1"><path d="M66.87 74.472c0-5.635 4.567-10.203 10.202-10.203s10.204 4.567 10.204 10.202-4.569 10.204-10.204 10.204c-5.635 0-10.203-4.57-10.203-10.204zM69.82 43.833c0-5.635 4.568-10.203 10.204-10.203 5.635 0 10.203 4.568 10.203 10.203 0 5.636-4.568 10.204-10.203 10.204-5.636 0-10.204-4.569-10.204-10.204zM94.37 90.166c0-5.635 4.567-10.203 10.202-10.203 5.636 0 10.204 4.568 10.204 10.203 0 5.636-4.568 10.204-10.204 10.204-5.635 0-10.203-4.568-10.203-10.204zM38.104 97.287c0-5.635 4.568-10.203 10.203-10.203 5.636 0 10.204 4.568 10.204 10.203 0 5.636-4.567 10.204-10.203 10.204-5.635 0-10.203-4.567-10.203-10.203zM72.772 109.608c0-5.635 4.568-10.203 10.203-10.203s10.204 4.568 10.204 10.203c0 5.636-4.57 10.204-10.205 10.204s-10.203-4.568-10.203-10.204zM101.255 58.262c0-5.635 4.57-10.203 10.204-10.203s10.203 4.567 10.203 10.202c0 5.636-4.57 10.204-10.204 10.204-5.636 0-10.205-4.568-10.205-10.204zM39.79 62.713c0-5.635 4.568-10.204 10.204-10.204 5.635 0 10.203 4.568 10.203 10.203S55.63 72.917 49.994 72.917c-5.636 0-10.204-4.57-10.204-10.204zM38.76 26.968c0-5.636 4.568-10.204 10.203-10.204s10.203 4.568 10.203 10.204c0 5.635-4.568 10.203-10.203 10.203S38.76 32.604 38.76 26.97zM96.758 27.764c0-5.635 4.568-10.204 10.203-10.204 5.637 0 10.205 4.57 10.205 10.204 0 5.635-4.568 10.204-10.204 10.204-5.634 0-10.202-4.57-10.202-10.204zM125.242 76.486c0-5.635 4.568-10.203 10.203-10.203 5.636 0 10.204 4.568 10.204 10.203 0 5.636-4.57 10.204-10.205 10.204s-10.203-4.568-10.203-10.204zM94.837 125.21c0-5.636 4.568-10.205 10.203-10.205 5.636 0 10.204 4.57 10.204 10.204s-4.568 10.202-10.204 10.202c-5.635 0-10.203-4.568-10.203-10.203zM39.415 133.032c0-5.635 4.568-10.203 10.204-10.203 5.634 0 10.202 4.567 10.202 10.202 0 5.636-4.568 10.204-10.203 10.204-5.637 0-10.205-4.568-10.205-10.204zM14.35 80.562c0-5.635 4.57-10.203 10.205-10.203s10.203 4.567 10.203 10.202-4.568 10.204-10.203 10.204c-5.636 0-10.204-4.57-10.204-10.204z"/><path d="M83.817 82.128s-13.422 11.407-19.91 23.175c-10.137 18.382-5.52 22.51-5.52 22.51l-10.443-4.847s4.77.34 13.307-18.438c9.966-21.915 6.035-27.162 6.035-27.162l16.532 4.762zM55.11 18.822s2.564 3.035 21.686 3.94c18.21.86 25.047-3.826 25.047-3.826l-2.636 15.46s-5.654-8.904-20.353-9.088C62.24 25.1 56.74 33.574 56.74 33.574l-1.63-14.752zM126.232 80.876s3.606 4.136-3.334 16.65c-8.453 15.245-21.05 17.99-21.05 17.99l13.396 9.693s-1.286-11.03 9.468-25.292c8.583-11.383 16.13-14.77 16.13-14.77l-14.61-4.272zM16.28 74.594S28.47 60.94 33.415 49.13c5.893-14.077 5.39-21.182 5.39-21.182l12.985 8.826s-8.82 1.328-16.244 14.378c-7.805 13.723-1.58 25.46-1.58 25.46l-17.687-2.018z"/></g></svg>