<svg xmlns="http://www.w3.org/2000/svg" style="isolation:isolate" width="31" height="31"><path d="M26.944 5.612l-4.942 6.286 7.998.28-7.3 3.273 6.953 3.958-7.989-.489 4.314 6.73-6.847-4.139.688 7.962-4.135-6.842L12.586 30l-.476-7.978-6.172 5.087 3.29-7.284-7.832 1.64L7.7 16.541 0 14.361l7.873-1.435-5.8-5.505 7.639 2.384L7.137 2.24l5.654 5.655L14.032 0l2.375 7.631 4.773-6.415-1.449 7.86 7.213-3.464z" fill="#ec7a59"/><path d="M26.944 5.612l-4.942 6.286 7.998.28-7.3 3.273 6.953 3.958-7.989-.489 4.314 6.73-6.847-4.139.688 7.962-4.135-6.842L12.586 30l-.476-7.978-6.172 5.087 3.29-7.284-7.832 1.64L7.7 16.541 0 14.361l7.873-1.435-5.8-5.505 7.639 2.384L7.137 2.24l5.654 5.655L14.032 0l2.375 7.631 4.773-6.415-1.449 7.86 7.213-3.464z" fill="none" stroke="#d04748" stroke-width="2" stroke-linecap="round" stroke-linejoin="bevel"/></svg>